<?xml version="1.0" encoding="UTF-8"?>
<svg width="1214.9" height="234.67" fill="none" version="1.1" viewBox="0 0 1214.8698 234.66914" xmlns="http://www.w3.org/2000/svg" xmlns:cc="http://creativecommons.org/ns#" xmlns:dc="http://purl.org/dc/elements/1.1/" xmlns:rdf="http://www.w3.org/1999/02/22-rdf-syntax-ns#" xmlns:xlink="http://www.w3.org/1999/xlink">
 <metadata>
  <rdf:RDF>
   <cc:Work rdf:about="">
    <dc:format>image/svg+xml</dc:format>
    <dc:type rdf:resource="http://purl.org/dc/dcmitype/StillImage"/>
    <dc:title/>
   </cc:Work>
  </rdf:RDF>
 </metadata>
 <defs>
  <clipPath id="clipPath124-0">
   <path d="m880.82 1247.7h4.941v-2.76h-4.941z"/>
  </clipPath>
  <clipPath id="clipPath140-4">
   <path d="m1067.6 1260.4h5.29v-2.05h-5.29z"/>
  </clipPath>
  <clipPath id="clipPath156-3">
   <path d="m681.74 1340.8h582.85v-452.53h-582.85z"/>
  </clipPath>
  <linearGradient id="linearGradient1500" x2="1" gradientTransform="matrix(4.3393 -62.055 -62.055 -4.3393 982.96 907.44)" gradientUnits="userSpaceOnUse">
   <stop stop-color="#311811" offset="0"/>
   <stop stop-color="#ac6c70" offset="1"/>
  </linearGradient>
 </defs>
 <g transform="translate(-3.3205 255.53)" fill="#050000" stroke="#000">
  <g transform="matrix(.96355 0 0 -1.1413 424.43 -106.69)" stroke-width="2.8607">
   <path d="m0 0c0 14.654-10.856 21.167-30.938 21.167h-41.611v-42.153h41.611c20.082 0 30.938 6.332 30.938 20.986m-72.549 76.35v-40.527h37.088c18.454 0 28.947 6.874 28.947 20.263 0 13.388-10.493 20.264-28.947 20.264zm90.822-77.797c0-21.71-16.464-34.195-48.487-34.195h-60.428v126.65h56.81c29.127 0 45.411-12.304 45.411-32.747 0-13.75-7.056-23.339-17.007-28.224 14.293-3.981 23.701-14.655 23.701-31.48" fill="#050000" stroke="#000" stroke-width="2.8607"/>
  </g>
  <g transform="matrix(.9993 0 0 -1.1454 623.16 -84.044)" stroke-width="2.8041">
   <path d="m0 0v-15.741h-91.908v126.64h89.375v-15.741h-71.282v-38.897h63.502v-15.378h-63.502v-40.888z" fill="#050000" stroke="#000" stroke-width="2.8041"/>
  </g>
  <g transform="matrix(1.0684 0 0 -1.1417 754.26 -193.06)" stroke-width="2.7162">
   <path d="m0 0h-43.421v15.741h104.75v-15.741h-43.42v-110.9h-17.912z" fill="#050000" stroke="#000" stroke-width="2.7162"/>
  </g>
  <g transform="matrix(1.0288 0 0 -1.1521 1162.1 -116)" stroke-width="2.7556">
   <path d="m0 0v-43.783h-17.91v44.145l-50.296 82.5h19.358l40.526-66.759 40.708 66.759h17.911z" fill="#050000" stroke="#000" stroke-width="3.6741"/>
  </g>
  <g transform="matrix(1.0684 0 0 -1.1417 948.26 -193.06)" stroke-width="2.7162">
   <path d="m0 0h-43.421v15.741h104.75v-15.741h-43.42v-110.9h-17.912z" fill="#050000" stroke="#000" stroke-width="2.7162"/>
  </g>
 </g>
 <g transform="matrix(.32911 0 0 -.32911 -2446.5 351.48)">
  <path transform="scale(1,-1)" d="m7842.7-378.76a57.457 22.394 0 0 1 -61.421 20.485 57.457 22.394 0 0 1 -53.186 -23.728 57.457 22.394 0 0 1 60.334 -20.97 57.457 22.394 0 0 1 54.419 23.299" fill="#c59b6d" stroke="#c59b6d" stroke-linecap="round" stroke-width=".50617" style="paint-order:fill markers stroke"/>
  <g transform="translate(1595.2 -50.912)">
   <g transform="translate(1204.9 -25.456)">
    <g transform="translate(5298.3 753.57)">
     <path d="m0 0c-0.129-0.361-0.26-0.588-0.355-0.72-0.1-0.134-0.155-0.182-0.25-0.25-0.073-0.051-0.322-0.201-0.715-0.424-0.598-0.352-1.534-0.84-2.698-1.791-0.577-0.479-1.213-1.092-1.812-1.895-0.596-0.794-1.142-1.789-1.493-2.892-0.349-1.079-0.477-2.14-0.475-3.061 4e-3 -1.327 0.235-2.368 0.449-3.172 0.22-0.805 0.44-1.394 0.574-1.784l8e-3 -0.026c1.153-3.262 1.743-6.749 1.743-10.227 0-1.558-0.119-3.114-0.355-4.649-0.538-3.495-1.702-7.018-3.285-10.636-1.579-3.617-3.571-7.311-5.648-11.117-8.463-15.531-16.92-31.067-25.384-46.593l-1e-3 -2e-3c-2.028-3.741-4.194-7.378-6.486-9.987-1.14-1.307-2.293-2.352-3.421-3.105-1.136-0.756-2.228-1.235-3.435-1.499l-0.02-4e-3c-0.977-0.214-1.822-0.457-2.618-0.777-0.277-0.111-0.543-0.234-0.77-0.346-0.043-4e-3 -0.083-8e-3 -0.133-0.012-0.271-0.02-0.756-0.049-1.484-0.197-0.755-0.156-1.821-0.483-2.925-1.19l-4e-3 5e-3c-0.022-0.013-0.037-0.029-0.059-0.042-0.021-0.014-0.042-0.023-0.063-0.038l4e-3 -5e-3c-0.53-0.352-0.979-0.73-1.335-1.09-0.577-0.587-0.948-1.116-1.21-1.524-0.261-0.41-0.417-0.709-0.509-0.879l-7e-3 -0.011c-1.878-3.532-3.274-7.133-4.43-10.676-1.153-3.545-2.068-7.036-2.947-10.382-0.389-1.485-0.716-3.02-1.052-4.443-0.328-1.409-0.679-2.714-0.945-3.436-0.967-2.657-2.079-5.246-3.34-7.744l-0.021-0.043c-0.447-0.901-0.932-1.819-1.44-2.74l5e-3 0.01c-1.963-3.542-4.212-6.929-6.715-10.124-1.262-1.613-2.578-3.17-3.945-4.662l-0.022-0.024c-1.667-1.835-3.422-3.59-5.252-5.251l-4e-3 -4e-3c-2.61-2.372-5.361-4.568-8.247-6.576l-0.02-0.014c-1.02-0.715-2.054-1.401-3.104-2.061-2.268-1.426-4.611-2.734-7.014-3.92l-0.031-0.016c-0.385-0.192-0.77-0.378-1.158-0.558l-0.045-0.022c-4.321-2.052-8.83-3.693-13.447-4.872-0.019-6e-3 -0.038-0.015-0.057-0.02-1.003-0.254-2.017-0.491-3.044-0.708-2.677-0.565-5.766-1.05-9.07-1.893-3.295-0.85-6.87-2.082-10.276-4.377-2.201-1.492-3.879-3.103-5.311-4.473-1.426-1.38-2.614-2.524-3.655-3.306l-3e-3 -2e-3c-1.18-0.9-2.703-1.765-4.489-2.634-2.676-1.317-5.915-2.597-9.283-4.461-1.683-0.938-3.403-2.038-5.055-3.431-1.649-1.389-3.227-3.086-4.528-5.125-1.485-2.34-2.287-4.548-2.954-6.328-0.655-1.793-1.179-3.174-1.691-4.067l-4e-3 -7e-3c-0.697-1.251-1.791-2.5-3.32-3.799-1.52-1.298-3.442-2.604-5.536-3.988-8.336-5.534-16.391-10.824-24.81-14.444-2.558-1.103-5.244-2.092-8.03-3.048l-0.017-5e-3c-1.865-0.646-3.786-1.276-5.745-1.917l0.01 3e-3c-9.065-2.957-18.128-5.922-27.189-8.886-12.02-3.933-24.008-7.825-35.968-10.711-11.961-2.889-23.878-4.768-35.787-4.766-0.366 0-0.735 2e-3 -1.106 5e-3h8e-3c-8.893 0.089-17.93 1.247-27.039 2.826-4.419 0.766-8.754 1.693-12.993 2.813-0.024 7e-3 -0.046 0.017-0.069 0.022-12.098 3.195-23.41 7.924-33.71 14.832-1.619 1.086-3.613 1.448-5.51 1-0.59-0.139-1.189-0.207-1.825-0.208-1.537-4e-3 -3.354 0.424-5.305 1.308-1.944 0.874-3.978 2.188-5.839 3.689-2.349 1.882-4.759 4.207-7.467 6.632-2.71 2.418-5.736 4.953-9.442 7.05-4.032 2.268-8.08 3.581-11.779 4.717l-0.01 3e-3c-3.901 1.177-7.45 2.162-10.419 3.462-1.063 0.463-2.082 0.972-3.056 1.531l-0.033 0.019c-3.929 2.224-7.416 5.267-10.136 8.856-0.012 0.016-0.019 0.028-0.032 0.045-0.564 0.741-1.097 1.511-1.607 2.312-0.661 1.047-1.432 2.357-2.388 3.772-0.865 1.27-1.899 2.639-3.252 3.969-0.146 0.162-0.3 0.318-0.463 0.468-0.922 0.848-2.007 1.667-3.284 2.346-1.272 0.679-2.74 1.203-4.304 1.458l-0.033 6e-3c-0.793 0.127-1.555 0.177-2.267 0.176-1.613-3e-3 -2.951-0.239-4.037-0.456l-0.021-5e-3c-1.32-0.28-2.268-0.504-2.802-0.563l-0.043-5e-3c-0.234-0.031-0.45-0.045-0.652-0.047h-0.036l-0.107-1e-3c-1.175 0-2.491 0.304-3.974 0.994l-0.029 0.013c-2.065 0.94-4.356 2.655-6.398 4.651l-0.14 0.142-0.09 0.089c-1.004 0.981-2.014 2.047-3.075 3.192-0.015 0.016-0.024 0.025-0.038 0.04-1.594 1.709-3.288 3.564-5.223 5.408-1.942 1.849-4.136 3.691-6.738 5.276-4.992 3.034-10.698 4.548-16.424 4.553-0.254 0-0.509-0.024-0.764-0.03-4e-3 0.909-7e-3 1.815-0.012 2.725v5e-3c-7e-3 0.849-2e-3 1.963-0.166 3.323-0.168 1.351-0.519 2.999-1.402 4.718l-6e-3 0.012c-0.845 1.629-1.933 2.855-2.95 3.784-1.021 0.93-1.989 1.594-2.809 2.129-2.394 1.55-4.609 2.691-6.364 3.771-0.879 0.535-1.643 1.046-2.276 1.543-0.634 0.495-1.135 0.969-1.537 1.444l-6e-3 7e-3c-0.622 0.729-1.208 1.713-1.759 2.994-0.553 1.276-1.056 2.826-1.572 4.546l1e-3 -3e-3c-3.016 10.033-5.357 20.278-7.001 30.638-2.053 12.899-3.623 25.248-3.621 37.797 0 0.76 6e-3 1.516 0.018 2.268 0.027 1.676-0.532 3.273-1.598 4.566-4.91 5.953-10.247 11.236-15.489 16.327-5.245 5.087-10.398 9.987-15.017 15.101-4.59 5.074-8.747 10.585-11.814 16.317-3.073 5.739-5.051 11.653-5.505 17.704-0.093 1.16-0.131 2.692-0.371 4.528-0.247 1.825-0.717 4.031-1.941 6.296-0.276 0.502-0.576 0.973-0.899 1.419 0.943 1.18 1.844 2.461 2.639 3.883 0.946 1.694 1.741 3.585 2.246 5.655l3e-3 0.013c0.426 1.755 0.613 3.505 0.612 5.193 0 2.172-0.304 4.238-0.776 6.176-0.713 2.907-1.791 5.537-2.929 7.962-1.141 2.421-2.352 4.644-3.409 6.663-5.705 10.883-9.775 22.631-12.022 34.717l-1e-3 5e-3c-0.559 2.979-0.934 5.979-0.932 8.694-1e-3 2.017 0.205 3.868 0.624 5.459 0.421 1.597 1.033 2.926 1.893 4.098l-3e-3 -3e-3c0.418 0.578 1.152 1.396 2.078 2.513 0.914 1.119 2.045 2.571 2.953 4.569 0.713 1.587 1.056 3.018 1.302 4.17 0.24 1.159 0.387 2.06 0.534 2.672l1e-3 5e-3c0.365 1.573 1.052 3.127 1.996 4.51 0.942 1.384 2.136 2.589 3.465 3.501 1.004 0.698 2.473 1.461 4.264 2.442 1.78 0.993 3.915 2.226 5.994 4.194l2e-3 2e-3c1.536 1.469 2.719 3.166 3.59 5.049 0.861 1.886 1.423 3.98 1.431 6.311 0 1.382-0.212 2.854-0.743 4.32-0.525 1.463-1.387 2.907-2.542 4.119-0.869 0.917-1.816 1.626-2.72 2.166-1.593 0.946-3.04 1.425-4.229 1.788-0.894 0.267-1.658 0.459-2.255 0.627-0.045 0.013-0.076 0.023-0.119 0.036 0.175 3.343 1.041 6.568 2.559 9.219 0.993 1.75 2.393 3.491 4.119 5.324 1.721 1.835 3.753 3.744 5.861 5.886 8.401 8.572 17.073 18.067 23.839 28.807 3.38 5.372 6.28 11.067 8.37 17.126 2.09 6.055 3.36 12.483 3.45 19.206 0.023 1.562 0.314 3.089 0.869 4.684 0.827 2.385 2.288 4.912 4.198 7.481 1.903 2.57 4.231 5.165 6.632 7.755l-2e-3 -3e-3c11.92 12.859 23.849 25.72 35.772 38.58l-3e-3 -3e-3c1.735 1.871 3.373 3.62 4.982 5.089 1.609 1.473 3.174 2.655 4.749 3.502l0.012 6e-3c1.354 0.747 3.335 1.509 5.669 2.59 1.166 0.546 2.423 1.188 3.714 2.024 1.286 0.834 2.611 1.874 3.827 3.195 1.376 1.497 2.299 3.169 2.906 4.864 0.604 1.701 0.899 3.443 0.902 5.215 0 0.725-0.058 1.456-0.168 2.192 0.108 8e-3 0.211 0.016 0.323 0.023 1.758 0.116 3.86 0.157 6.197 0.394 2.331 0.244 4.943 0.678 7.656 1.838 1.701 0.729 3.227 1.669 4.56 2.713 2.339 1.833 4.09 3.941 5.547 5.98 2.172 3.07 3.764 6.049 5.322 8.388 0.771 1.171 1.517 2.176 2.239 2.976 0.723 0.803 1.409 1.396 2.101 1.836 0.765 0.486 1.66 0.869 2.797 1.187 1.697 0.481 3.922 0.756 6.518 1.009 2.594 0.266 5.553 0.515 8.754 1.284h3e-3c3.333 0.811 6.359 2.062 9.17 3.392 4.208 2.005 7.985 4.199 11.347 5.744 1.676 0.777 3.235 1.392 4.636 1.792 1.405 0.403 2.637 0.591 3.737 0.59 1.052-4e-3 1.994-0.156 3.029-0.532 2.262-0.832 4.816-0.433 6.717 1.048s2.912 3.861 2.659 6.258c-0.013 0.126-0.019 0.242-0.019 0.351 1e-3 0.301 0.04 0.564 0.121 0.846 0.142 0.486 0.435 1.063 0.99 1.722 0.819 0.981 2.249 2.066 3.981 2.873 1.722 0.814 3.719 1.35 5.468 1.501 1.105 0.097 2.272 0.137 3.5 0.137 3.354 8e-3 7.139-0.32 11.281-0.328 3.636 3e-3 7.597 0.268 11.701 1.507 1.782 0.541 3.37 1.197 4.813 1.83 2.16 0.955 4.012 1.851 5.567 2.422 0.777 0.289 1.473 0.501 2.089 0.635 0.617 0.134 1.149 0.193 1.642 0.193h0.092l0.039-1e-3c0.557-3e-3 1.503-0.13 2.771-0.339 1.271-0.197 2.867-0.478 4.842-0.485 1.403-1e-3 3.018 0.161 4.699 0.69l0.01 4e-3c1.246 0.394 2.331 0.928 3.253 1.48 1.386 0.833 2.428 1.694 3.273 2.396 0.841 0.708 1.49 1.263 1.955 1.599l7e-3 5e-3c1.126 0.818 2.232 1.333 3.502 1.691 1.266 0.353 2.71 0.529 4.375 0.529 1.779 2e-3 3.796-0.206 5.987-0.561 3.292-0.527 6.957-1.386 10.865-2.154 3.912-0.762 8.08-1.444 12.49-1.449 1.612 0 3.255 0.095 4.919 0.32l4e-3 1e-3c2.576 0.355 4.762 0.941 6.622 1.363 1.862 0.433 3.377 0.698 4.579 0.714l0.177 1e-3c1.66 1e-3 3.452-0.391 5.536-1.18 1.557-0.587 3.248-1.389 5.06-2.31 2.724-1.375 5.703-3.022 9.096-4.417 1.698-0.695 3.506-1.324 5.448-1.786 1.939-0.459 4.017-0.75 6.197-0.75h0.166c1.779 0.015 3.295 0.205 4.556 0.346 1.261 0.148 2.267 0.246 2.99 0.243 0.473 0 0.819-0.036 1.079-0.088 0.327-0.066 0.637-0.169 0.998-0.343 0.627-0.299 1.422-0.851 2.364-1.712 1.423-1.28 3.088-3.216 5.167-5.327 1.045-1.053 2.208-2.15 3.568-3.199 1.357-1.045 2.921-2.044 4.73-2.829 1.556-0.675 3.08-1.098 4.503-1.384 2.14-0.426 4.058-0.564 5.716-0.697 1.659-0.125 3.061-0.245 4.153-0.455h3e-3c0.493-0.092 1.058-0.266 1.557-0.492 0.733-0.319 1.284-0.762 1.457-0.969 0.034-3.079 2.053-5.788 5.041-6.648 2.234-0.644 4.559-0.117 6.291 1.264 0.078-0.033 0.152-0.06 0.234-0.099 0.637-0.29 1.367-0.731 1.913-1.139l-1e-3 2e-3c1.483-1.093 3.108-1.998 4.911-2.711 1.809-0.697 3.778-1.234 6.122-1.249 0.491 0 1.006 0.038 1.531 0.102 0.611-0.78 1.248-1.561 1.946-2.333 1.151-1.271 2.438-2.518 3.914-3.661 1.474-1.141 3.143-2.176 5.013-2.986 1.493-0.645 2.794-1.027 3.825-1.349 1.027-0.313 1.785-0.567 2.277-0.788 0.59-0.269 1.277-0.687 2.063-1.273 0.792-0.587 1.675-1.338 2.663-2.191l-4e-3 4e-3c7.522-6.497 14.83-12.928 22.493-19.446l2e-3 -2e-3c1.697-1.439 3.535-2.97 5.606-4.428 2.068-1.455 4.381-2.841 7.02-3.915 2.632-1.072 5.503-1.765 8.53-1.882 0.095-2.531 0.19-5.06 0.286-7.589l-1e-3 0.014c0.039-1.036 0.079-2.285 0.269-3.723 0.193-1.434 0.543-3.083 1.302-4.81l1e-3 -3e-3c0.494-1.118 1.085-2.093 1.688-2.935 0.907-1.266 1.831-2.244 2.627-3.062 0.797-0.809 1.474-1.463 1.964-1.99 1.149-1.235 2.249-2.777 3.356-4.571 1.672-2.688 3.319-5.924 5.452-9.272 1.071-1.673 2.275-3.375 3.714-5.02 1.436-1.643 3.116-3.23 5.099-4.609 2.22-1.535 4.271-2.487 5.858-3.325 1.603-0.826 2.709-1.518 3.341-2.114l0.021-0.019c0.359-0.327 0.776-0.798 1.244-1.434 0.469-0.634 0.985-1.426 1.567-2.337l9e-3 -0.014c2.379-3.694 4.755-7.395 7.142-11.095l-7e-3 0.01c1.268-1.967 2.405-3.786 3.188-5.42 0.79-1.638 1.211-3.034 1.31-4.253 0.043-0.492 0.042-1.27 0.049-2.326 0.013-1.053 0.035-2.395 0.318-3.987 0.265-1.502 0.723-2.909 1.295-4.18 1.007-2.234 2.33-4.038 3.636-5.562 1.974-2.281 3.944-4.019 5.451-5.568 0.756-0.767 1.397-1.475 1.892-2.115 0.496-0.639 0.843-1.202 1.074-1.701 0.295-0.622 0.592-1.613 0.916-2.984 0.333-1.365 0.689-3.091 1.395-5.081 0.856-2.409 2.008-4.475 3.177-6.29 1.174-1.817 2.372-3.396 3.423-4.826 8.831-11.997 16.446-24.858 22.469-38.393 1.715-3.835 4.035-8.307 7.258-12.378 1.618-2.033 3.473-3.976 5.693-5.64 1.589-1.188 3.392-2.232 5.397-2.981 0.983-1.158 1.876-2.261 2.601-3.308 1.037-1.489 1.733-2.837 2.104-4.091 0.291-0.951 0.505-2.388 0.783-4.246 0.294-1.849 0.659-4.149 1.715-6.695l6e-3 -0.013c0.814-1.926 1.79-3.417 2.6-4.63 0.819-1.21 1.481-2.157 1.888-2.885 0.934-1.642 1.549-3.648 1.912-6.056 0.366-2.4 0.462-5.153 0.488-8.067v3e-3c6e-3 -0.588 9e-3 -1.177 9e-3 -1.764 4e-3 -3.987-0.173-7.837-0.804-11.237-0.313-1.701-0.735-3.288-1.281-4.741-0.547-1.455-1.214-2.776-2.035-3.988l-0.018-0.026c-0.234-0.358-0.673-0.949-1.205-1.833-0.522-0.883-1.161-2.11-1.518-3.742-0.172-0.789-0.256-1.594-0.256-2.376-1e-3 -1.235 0.206-2.382 0.505-3.375 0.53-1.744 1.286-3.034 1.951-4.077 0.505-0.781 0.979-1.427 1.372-1.973 0.266-0.364 0.485-0.678 0.667-0.946-0.227-0.333-0.51-0.75-0.826-1.279-1.061-1.777-1.731-3.647-2.117-5.431-0.389-1.789-0.51-3.497-0.511-5.092 1e-3 -1.65 0.131-3.188 0.285-4.611 0.154-1.418 0.335-2.722 0.472-3.886 0.103-0.895 0.164-1.801 0.164-2.647 7e-3 -1.45-0.197-2.704-0.464-3.417m19.112 54.441c0.411 3.517 0.506 6.96 0.507 10.236 0 0.638-3e-3 1.272-0.01 1.899v4e-3c-0.034 3.088-0.111 6.473-0.644 10.018-0.535 3.536-1.545 7.281-3.575 10.866-0.9 1.578-1.787 2.8-2.448 3.791-0.667 0.984-1.099 1.725-1.312 2.242-0.292 0.677-0.552 1.812-0.794 3.428-0.258 1.61-0.492 3.674-1.192 6.076l-3e-3 8e-3c-0.938 3.154-2.444 5.818-4.034 8.106-1.597 2.291-3.294 4.24-4.813 5.993-0.981 1.129-2.288 1.91-3.748 2.239-0.71 0.159-1.558 0.538-2.548 1.277-1.479 1.091-3.162 2.996-4.655 5.269-1.503 2.265-2.837 4.862-3.887 7.227-6.468 14.531-14.602 28.256-23.989 41.007l-5e-3 8e-3c-1.108 1.499-2.122 2.854-2.923 4.099-0.805 1.246-1.391 2.368-1.752 3.392l-9e-3 0.023c-0.306 0.837-0.593 2.068-0.965 3.639-0.381 1.565-0.852 3.486-1.826 5.603l-3e-3 5e-3c-1.19 2.554-2.76 4.565-4.27 6.244-1.138 1.259-2.259 2.346-3.269 3.331-1.518 1.47-2.771 2.73-3.542 3.758-0.388 0.512-0.661 0.957-0.843 1.334-0.182 0.38-0.281 0.69-0.34 1.018l-4e-3 0.02c-0.052 0.267-0.093 0.808-0.098 1.644-0.011 0.834 0.016 1.951-0.095 3.343l-1e-3 7e-3c-0.292 3.491-1.384 6.546-2.649 9.175-1.273 2.634-2.733 4.9-4.022 6.912l-7e-3 0.01c-2.376 3.684-4.75 7.382-7.137 11.087l0.01-0.014c-0.594 0.924-1.267 1.979-2.093 3.1-0.824 1.115-1.809 2.304-3.052 3.444-2.223 2.032-4.491 3.246-6.343 4.221-1.872 0.965-3.363 1.714-4.33 2.4l-5e-3 4e-3c-1.195 0.831-2.285 1.92-3.382 3.338-1.648 2.117-3.229 4.968-5.039 8.158-1.825 3.178-3.892 6.716-6.942 10.014l-0.01 0.011c-1.141 1.215-2.113 2.114-2.743 2.808-0.317 0.343-0.55 0.629-0.704 0.843-0.154 0.216-0.228 0.359-0.266 0.445-0.058 0.127-0.162 0.443-0.238 1.017-0.078 0.572-0.121 1.376-0.154 2.368v0.014c-0.196 5.205-0.393 10.409-0.588 15.613-0.09 2.385-1.382 4.553-3.437 5.766-2.056 1.213-4.579 1.297-6.71 0.222-0.692-0.349-1.571-0.563-2.673-0.564-1.243-6e-3 -2.733 0.301-4.107 0.867l-0.015 7e-3c-1.368 0.555-2.773 1.364-4.242 2.399-1.468 1.031-2.992 2.283-4.593 3.645l2e-3 -1e-3c-7.545 6.416-14.826 12.824-22.413 19.376l-4e-3 4e-3c-1.005 0.864-2.133 1.841-3.453 2.823-1.321 0.981-2.842 1.972-4.64 2.79l-0.027 0.013c-1.513 0.675-2.841 1.071-3.899 1.401-1.061 0.324-1.854 0.582-2.369 0.809l-0.014 7e-3c-0.672 0.291-1.332 0.685-2.016 1.215-1.024 0.789-2.094 1.894-3.179 3.254-1.088 1.356-2.184 2.953-3.321 4.652-1.443 2.151-3.938 3.326-6.515 3.066-1.544-0.155-2.95-0.817-4.046-1.831-0.059 0.025-0.118 0.045-0.178 0.073-0.52 0.226-1.065 0.549-1.419 0.815l-3e-3 2e-3c-1.432 1.055-3.052 2.03-4.901 2.829-0.926 0.398-1.909 0.749-2.98 1.016-0.962 0.237-2.003 0.402-3.14 0.437-0.352 0.423-0.716 0.827-1.095 1.198-1.49 1.449-3.136 2.528-4.837 3.359-1.705 0.827-3.47 1.405-5.281 1.748-2.832 0.522-5.266 0.593-7.2 0.782-0.966 0.088-1.804 0.195-2.498 0.336-0.697 0.14-1.246 0.309-1.691 0.503l-5e-3 2e-3c-0.788 0.337-1.729 0.975-2.843 1.995-0.832 0.759-1.744 1.714-2.747 2.787-1.512 1.606-3.207 3.49-5.428 5.29-1.112 0.897-2.366 1.768-3.806 2.514-1.436 0.745-3.064 1.356-4.831 1.708h-3e-3c-1.365 0.271-2.65 0.357-3.816 0.358-1.788-4e-3 -3.31-0.191-4.583-0.334-1.272-0.149-2.296-0.253-3.049-0.255h-0.08c-1.668 0-3.464 0.392-5.551 1.18-1.557 0.587-3.249 1.391-5.061 2.311-2.724 1.375-5.7 3.02-9.09 4.416-1.696 0.694-3.503 1.323-5.443 1.785-1.938 0.461-4.013 0.751-6.192 0.751-0.142 0-0.282-1e-3 -0.419-4e-3 -2.876-0.056-5.35-0.585-7.47-1.066-2.121-0.494-3.907-0.942-5.373-1.136-0.961-0.13-1.973-0.193-3.039-0.193-3.889-0.013-8.493 0.884-13.438 1.933-2.475 0.52-5.039 1.064-7.687 1.492-2.648 0.426-5.384 0.739-8.217 0.739-2.643 0-5.383-0.277-8.134-1.043-2.747-0.761-5.491-2.032-8.005-3.875-1.503-1.11-2.549-2.09-3.306-2.677-0.373-0.297-0.663-0.498-0.854-0.612-0.188-0.111-0.27-0.139-0.284-0.143-0.032-0.01-0.154-0.043-0.491-0.044-0.486-7e-3 -1.39 0.104-2.63 0.31-1.241 0.192-2.814 0.474-4.757 0.512-0.129 2e-3 -0.251 3e-3 -0.357 3e-3 -2.19 1e-3 -4.214-0.359-6.025-0.862-2.721-0.761-5.001-1.813-7.002-2.714-1.997-0.913-3.716-1.679-5.143-2.105-2.187-0.667-4.71-0.909-7.642-0.906-3.327-7e-3 -7.118 0.321-11.281 0.328-1.528 0-3.107-0.047-4.734-0.191l-6e-3 -1e-3c-2.665-0.239-5.301-0.851-7.838-1.792-1.902-0.708-3.748-1.605-5.491-2.706-2.609-1.654-5.017-3.77-6.882-6.508-0.63-0.93-1.186-1.938-1.654-3.01-3.531-0.026-6.782-0.815-9.746-1.874-4.515-1.628-8.493-3.868-12.212-5.791-3.704-1.94-7.124-3.543-10.073-4.243h3e-3c-1.24-0.302-2.69-0.516-4.309-0.697-2.431-0.278-5.228-0.46-8.287-1.005-1.53-0.276-3.128-0.651-4.764-1.216-1.633-0.563-3.306-1.323-4.924-2.352l-6e-3 -3e-3c-1.501-0.955-2.812-2.051-3.958-3.194-2.007-2.006-3.527-4.139-4.837-6.156-1.949-3.029-3.484-5.83-4.966-7.832-0.733-1.005-1.434-1.804-2.091-2.393-0.662-0.591-1.263-0.98-1.928-1.268l-2e-3 -1e-3c-0.778-0.343-2.006-0.624-3.633-0.781-1.215-0.123-2.63-0.184-4.185-0.262-2.335-0.13-4.989-0.258-7.923-1.034-1.463-0.394-3.001-0.97-4.511-1.849-1.507-0.874-2.971-2.064-4.197-3.534-1.592-1.899-2.06-4.484-1.236-6.822 0.555-1.575 1.646-2.86 3.038-3.684-0.26-0.27-0.6-0.556-1.087-0.872-0.78-0.512-1.934-1.07-3.381-1.697-1.441-0.635-3.165-1.336-5.038-2.345-2.923-1.577-5.387-3.514-7.553-5.492-2.167-1.984-4.049-4.019-5.795-5.898l-4e-3 -2e-3c-11.921-12.86-23.85-25.72-35.772-38.581l-3e-3 -3e-3c-3.31-3.584-6.962-7.608-9.963-12.363-1.497-2.38-2.831-4.957-3.814-7.774-0.983-2.813-1.606-5.876-1.649-9.104-0.07-5.086-1.019-9.996-2.686-14.833-2.494-7.247-6.641-14.318-11.741-21.129-5.096-6.811-11.122-13.343-17.226-19.562-1.828-1.866-3.937-3.839-6.069-6.104-2.127-2.265-4.291-4.842-6.082-7.98-2.959-5.203-4.308-10.984-4.429-16.643-6e-3 -0.213-9e-3 -0.421-9e-3 -0.62 1e-3 -0.615 0.022-1.363 0.147-2.244 0.125-0.877 0.36-1.899 0.823-2.979l8e-3 -0.016c0.546-1.273 1.345-2.432 2.238-3.343 0.78-0.803 1.615-1.422 2.409-1.901 1.398-0.836 2.66-1.279 3.726-1.617 0.802-0.25 1.505-0.433 2.098-0.594 0.28-0.075 0.525-0.145 0.753-0.211-0.081-0.108-0.162-0.202-0.226-0.261-0.608-0.588-1.639-1.272-3.119-2.083-1.469-0.821-3.352-1.749-5.411-3.152l-2e-3 -1e-3c-2.819-1.939-5.213-4.379-7.107-7.155-1.891-2.777-3.288-5.895-4.063-9.223-0.288-1.25-0.447-2.252-0.6-2.969-0.149-0.721-0.288-1.136-0.362-1.291l-2e-3 -4e-3c-0.084-0.201-0.38-0.682-1.003-1.431-0.61-0.752-1.523-1.737-2.536-3.101l-2e-3 -3e-3c-2.038-2.766-3.366-5.812-4.16-8.846-0.795-3.039-1.08-6.073-1.081-9.011 2e-3 -3.959 0.518-7.762 1.169-11.261 2.504-13.467 7.03-26.529 13.385-38.654 1.5-2.852 2.969-5.557 3.979-8.012 0.508-1.225 0.901-2.379 1.157-3.433 0.258-1.054 0.379-2.002 0.379-2.857-1e-3 -0.666-0.071-1.278-0.217-1.888-0.173-0.701-0.452-1.399-0.87-2.149-0.624-1.124-1.582-2.354-2.814-3.636-1.229-1.284-2.716-2.61-4.301-3.989-2.771-2.414-3.205-6.547-0.997-9.485 1.583-2.105 4.133-3.07 6.589-2.717 0.025-0.139 0.05-0.28 0.072-0.452 0.124-0.884 0.175-2.154 0.288-3.724 0.634-8.411 3.348-16.212 7.124-23.262 3.784-7.057 8.635-13.41 13.768-19.094 5.103-5.643 10.487-10.742 15.653-15.759 4.537-4.402 8.905-8.739 12.823-13.274 0.014-13.662 1.709-26.728 3.791-39.835 1.743-10.978 4.224-21.835 7.42-32.471l1e-3 -3e-3c0.56-1.85 1.198-3.907 2.123-6.055 0.925-2.142 2.151-4.399 3.941-6.51 1.139-1.343 2.37-2.464 3.593-3.42 1.84-1.435 3.659-2.516 5.302-3.467 1.645-0.947 3.122-1.764 4.322-2.549l0.01-6e-3c0.425-0.275 0.729-0.5 0.903-0.647 0.035-0.298 0.06-0.86 0.06-1.656v5e-3c0.017-3.627 0.027-7.264 0.045-10.917 0.011-2.246 1.104-4.357 2.932-5.663 1.829-1.305 4.181-1.653 6.309-0.934 1.73 0.585 3.599 0.885 5.489 0.884 3.228 5e-3 6.484-0.884 9.142-2.51l3e-3 -2e-3c1.451-0.881 2.881-2.043 4.363-3.455 1.481-1.409 3.003-3.061 4.651-4.833 0.02-0.021 0.033-0.033 0.051-0.052 1.077-1.162 2.202-2.351 3.421-3.545l-1e-3 -1e-3 0.206-0.208 0.093-0.093c2.835-2.751 6.218-5.453 10.327-7.36 2.924-1.363 6.261-2.298 9.873-2.299 0.09 0 0.174 1e-3 0.257 2e-3 0.782 5e-3 1.562 0.061 2.335 0.162 1.689 0.219 2.967 0.559 3.872 0.74 0.664 0.138 1.086 0.177 1.234 0.174l0.028-1e-3c0.033-0.017 0.154-0.088 0.354-0.267 0.017-0.016 0.032-0.035 0.051-0.051 0.374-0.334 0.948-1.017 1.581-1.959 0.639-0.939 1.337-2.115 2.143-3.399l0.017-0.028c0.64-1.006 1.327-1.994 2.054-2.967 0.066-0.099 0.136-0.195 0.227-0.315 3.89-5.134 8.805-9.421 14.392-12.592 1.441-0.826 2.918-1.563 4.419-2.216l2e-3 -2e-3c4.232-1.832 8.314-2.911 11.935-4.019 3.466-1.051 6.504-2.113 8.979-3.517 2.29-1.288 4.563-3.117 6.993-5.295 2.433-2.169 5.006-4.673 8.024-7.106 2.591-2.08 5.535-4.037 8.849-5.537 3.308-1.492 7.03-2.544 11.068-2.549 0.605 0 1.216 0.034 1.831 0.084 11.13-7.076 23.131-11.935 35.55-15.219 0.032-9e-3 0.062-0.022 0.095-0.031 4.695-1.242 9.447-2.256 14.241-3.087 9.501-1.643 19.279-2.928 29.287-3.031h7e-3c0.409-4e-3 0.82-6e-3 1.233-6e-3 13.384 1e-3 26.405 2.101 39.072 5.158 12.669 3.059 25 7.078 37.035 11.013 9.062 2.964 18.12 5.927 27.179 8.882l0.01 3e-3c1.951 0.641 3.941 1.291 5.952 1.986 2.971 1.021 5.99 2.126 9.018 3.43 9.949 4.297 18.661 10.112 27.003 15.632 2.133 1.417 4.522 2.998 6.874 4.995 2.342 1.993 4.682 4.444 6.462 7.618 1.282 2.304 1.989 4.402 2.613 6.062 0.609 1.673 1.129 2.893 1.622 3.649 0.597 0.93 1.391 1.739 2.572 2.592 0.88 0.635 1.967 1.268 3.225 1.906 1.887 0.963 4.151 1.924 6.59 3.078 2.437 1.16 5.067 2.517 7.628 4.453 2.013 1.533 3.563 3.092 4.905 4.375 1.336 1.293 2.459 2.305 3.439 2.96 1.503 1.021 3.463 1.791 5.924 2.419 2.45 0.635 5.339 1.104 8.466 1.753l0.012 2e-3c1.227 0.26 2.449 0.543 3.665 0.853 0.038 0.01 0.071 0.026 0.108 0.036 5.476 1.406 10.795 3.345 15.875 5.757 0.483 0.225 0.968 0.459 1.452 0.701 2.822 1.393 5.58 2.932 8.258 4.616 1.244 0.782 2.469 1.596 3.676 2.441 3.387 2.357 6.611 4.931 9.659 7.702 2.161 1.963 4.228 4.031 6.19 6.189 1.624 1.771 3.17 3.603 4.64 5.479 2.952 3.77 5.611 7.772 7.938 11.97l5e-3 0.01c0.586 1.063 1.165 2.155 1.72 3.275 1.513 3.003 2.839 6.09 3.983 9.239l3e-3 7e-3c0.617 1.716 1.031 3.401 1.411 5 0.372 1.585 0.697 3.076 0.966 4.098 0.876 3.339 1.731 6.569 2.718 9.6 0.736 2.262 1.547 4.408 2.479 6.422l0.018 3e-3c0.339 0.084 0.693 0.19 1.038 0.315 0.594 0.214 1.127 0.491 1.368 0.625 0.074 0.02 0.17 0.043 0.321 0.076l-0.021-4e-3c3.091 0.663 5.875 1.944 8.266 3.546 3.596 2.415 6.35 5.491 8.647 8.633 2.293 3.151 4.143 6.415 5.772 9.401l-2e-3 -2e-3c8.467 15.53 16.924 31.067 25.386 46.594 2.083 3.827 4.28 7.862 6.182 12.208 1.898 4.346 3.507 9.024 4.294 14.11l1e-3 4e-3c0.345 2.247 0.516 4.513 0.516 6.779 0 4.555-0.698 9.102-2.072 13.464 0.118 0.075 0.217 0.132 0.343 0.216l6e-3 4e-3c1.499 1.015 2.76 2.279 3.735 3.631 1.47 2.037 2.318 4.226 2.817 6.311 0.496 2.093 0.657 4.117 0.659 6.033 0 1.491-0.102 2.92-0.257 4.264l-2e-3 0.014c-0.159 1.349-0.333 2.613-0.459 3.769s-0.203 2.204-0.202 3.097c-1e-3 0.863 0.071 1.573 0.19 2.114 0.121 0.545 0.272 0.916 0.465 1.244l3e-3 4e-3c0.111 0.204 0.525 0.765 1.131 1.706 0.3 0.475 0.645 1.055 0.978 1.772 0.332 0.716 0.651 1.577 0.856 2.564l0.01 0.045c0.148 0.739 0.22 1.49 0.22 2.219 1e-3 1.235-0.206 2.381-0.503 3.375-0.53 1.745-1.286 3.037-1.952 4.081-0.505 0.782-0.979 1.428-1.374 1.976-0.261 0.359-0.478 0.668-0.658 0.933 0.062 0.091 0.117 0.173 0.188 0.275 1.5 2.215 2.657 4.548 3.544 6.908 1.33 3.548 2.058 7.149 2.471 10.664" fill="#f1f1f1" stroke="#8c8c8c" stroke-width="3.75"/>
    </g>
    <path d="m4943.7 465c-20.375 3.3316-36.522 8.534-48.03 15.474-5.0566 3.0497-8.0721 4.1659-11.255 4.1659-5.6327 0-8.7018 1.6658-18.658 10.127-9.196 7.8151-12.538 9.7143-23.19 13.179-14.623 4.756-19.393 8.251-27.647 20.255-4.4002 6.3997-9.3652 8.7045-16.761 7.7804-7.1287-0.89063-8.4564-0.1956-19.168 10.035-9.175 8.7626-15.139 12.221-23.024 13.354-4.6884 0.67313-5.0317 0.93338-5.0317 3.8141 0 6.2385-2.6816 10.135-10.365 15.06-8.3352 5.3427-9.1214 6.7357-13.349 23.649-3.6971 14.792-5.7946 28.298-7.3384 47.253l-1.3441 16.501-17.442 17.812c-23.223 23.715-28.44 31.706-30.685 47.002-0.6367 4.3374-1.6362 9.1234-2.221 10.636-0.8594 2.2221-0.5949 3.5429 1.3792 6.8855 1.8263 3.0926 2.439 5.7396 2.4288 10.492-0.012 5.4365-0.8079 8.0416-5.5044 18.008-7.2582 15.403-9.5594 21.478-12.014 31.718-3.3499 13.972-2.6634 20.888 2.7073 27.27 1.4249 1.6934 3.0998 5.083 3.722 7.5328 1.8772 7.3899 3.4001 9.4258 10.29 13.757 7.5448 4.7425 10.88 9.3475 10.88 15.023 0 5.5335-2.8412 9.7528-8.0058 11.889-4.1191 1.7037-4.3425 2.0138-3.6531 5.0706 1.2229 5.422 3.1026 8.0354 13.757 19.126 10.512 10.943 19.918 22.829 24.705 31.22 4.0425 7.0863 8.0219 19.919 8.8116 28.417 0.4995 5.3746 1.5342 8.9498 3.6423 12.585 1.6196 2.793 13.619 16.519 26.665 30.502 21.125 22.642 24.573 25.887 31.512 29.661 8.9109 4.8461 11.586 7.8882 12.423 14.128l0.5915 4.4104h4.6615c5.3634 0 11.385 2.2459 15.048 5.612 1.396 1.2831 4.543 5.4315 6.9933 9.2186 2.4502 3.787 5.2132 7.5115 6.1399 8.2765 0.9266 0.7651 6.0471 2.0465 11.379 2.8476 7.5466 1.134 12.207 2.6445 21.039 6.8188 9.7617 4.6139 12.245 5.3621 17.794 5.3621 7.1364 0 8.6521 1.0121 9.7807 6.5307 1.2956 6.3344 4.6074 7.5931 22.104 8.4012 13.265 0.6126 16.534 1.1168 21.781 3.3591 5.0687 2.1661 7.3436 2.5456 12.712 2.1205 6.1818-0.4896 6.8562-0.3034 12.365 3.4149 3.2044 2.1629 7.2874 4.1704 9.0733 4.4609 1.7859 0.2904 8.8691-0.5349 15.74-1.834 12.315-2.3285 14.774-2.3595 29.504-0.3713 4.4679 0.603 6.1493 0.1764 14.386-3.6506 11.188-5.198 17.465-6.7415 23.855-5.8657 4.6584 0.6385 4.9189 0.5152 10.926-5.1723 7.3448-6.9535 10.792-8.8416 17.821-9.7597 8.5965-1.1228 10.05-1.5918 10.05-3.2429 0-0.8628 1.0059-2.5746 2.2353-3.8041 1.7736-1.7735 3.0441-2.1061 6.1495-1.6094 2.5322 0.4048 4.6524 0.1087 6.0052-0.8388 1.1501-0.8056 4.2223-2.0284 6.8272-2.7174 2.6049-0.6891 6.1662-2.6178 7.9141-4.2861 1.7479-1.6684 6.0133-4.2855 9.4786-5.816 4.1826-1.8472 11.008-6.8404 20.304-14.853 15.962-13.759 22.586-18.286 28.028-19.156l3.813-0.6098 1.1158-8.4514c0.9313-7.0542 1.6655-9.0941 4.4412-12.339 1.8289-2.1384 5.0352-6.5098 7.1251-9.7143 2.0899-3.2044 5.0489-7.6828 6.5757-9.9519 1.5267-2.2692 6.0851-6.3211 10.13-9.0043 6.261-4.1534 8.2858-6.3346 13.623-14.676 5.3415-8.3477 6.3966-10.823 7.1281-16.72 0.8854-7.1396 2.3221-9.7492 9.9524-18.078 1.9218-2.0977 4.3239-6.4464 5.3382-9.6638 1.0657-3.381 5.6537-11.495 10.871-19.227 4.9649-7.3574 12.123-19.574 15.907-27.148 8.2389-16.491 10.307-19.374 17.942-25.015 5.8624-4.3308 8.8407-9.0307 8.8407-13.951 0-1.3678 1.9404-6.2693 4.312-10.892l4.312-8.405-0.3411-11.653c-0.2936-10.032-0.733-12.463-3.159-17.479-4.1718-8.6254-4.2635-9.3083-1.9505-14.537 1.9366-4.378 1.9962-5.2358 0.674-9.6985-0.945-3.1894-1.2653-7.7675-0.9187-13.136l0.5318-8.2402-3.977-3.4379c-3.3893-2.9299-3.9685-4.0621-3.9188-7.6617 0.032-2.323 0.5664-5.5603 1.1875-7.1938 1.742-4.5819 1.3425-12.871-0.9324-19.344-3.0262-8.61-34.919-66.774-39.252-71.584-2.5726-2.8562-5.4802-4.6761-9.4976-5.9448-6.9736-2.2023-9.2978-5.1979-12.659-16.317-6.2381-20.633-7.8552-25.008-11.401-30.845-8.1676-13.445-23.144-26.28-37.444-32.091-3.5418-1.4391-10.824-3.6166-16.182-4.8389-11.476-2.6176-14.322-3.9379-21.395-9.9257-2.9131-2.4661-8.3951-6.0238-12.182-7.9059-10.804-5.3694-13.326-7.75-17.476-16.496-3.7132-7.8248-3.9626-8.0805-14.935-15.312-15.044-9.9151-20.263-12.224-48.627-21.518-50.561-16.567-60.148-18.826-82.098-19.345-9.8279-0.23243-18.615 0.1689-24.396 1.1143z" fill="#000003" style="paint-order:fill markers stroke"/>
    <g transform="translate(4639.7 793.69)">
     <path d="m0 0v2e-3c0 1e-3 0 2e-3 -1e-3 3e-3z" fill="#f1f1f1"/>
    </g>
    <g transform="translate(4768.8 1032.5)">
     <path d="m0 0c3e-3 2e-3 5e-3 3e-3 8e-3 5e-3 1e-3 0 3e-3 1e-3 4e-3 2e-3z" fill="#f1f1f1"/>
    </g>
    <g transform="translate(4656 867)">
     <path d="m0 0v0.014c1e-3 0.014 0 0.028 1e-3 0.043z" fill="#f1f1f1"/>
    </g>
    <g transform="translate(4648.3 831.61)">
     <path d="m0 0v2e-3c1e-3 1e-3 1e-3 3e-3 1e-3 4e-3z" fill="#f1f1f1"/>
    </g>
    <g transform="translate(4937.1 1113.8)">
     <path d="m0 0h7e-3c0.012-1e-3 0.02 0 0.032-1e-3z" fill="#f1f1f1"/>
    </g>
    <g transform="translate(4788.7 1028)">
     <path d="m0 0l-4e-3 -4e-3c-1e-3 -1e-3 -1e-3 -2e-3 -2e-3 -2e-3z" fill="#f1f1f1"/>
    </g>
    <g transform="translate(4679.4 862.89)">
     <path d="m0 0c0-1e-3 1e-3 -1e-3 1e-3 -2e-3 1e-3 0 1e-3 -1e-3 2e-3 -2e-3z" fill="#f1f1f1"/>
    </g>
    <g transform="translate(4806.5 1042.5)">
     <path d="m0 0h-1e-3l-1e-3 -1e-3z" fill="#f1f1f1"/>
    </g>
    <g transform="translate(4660.1 821.6)">
     <path d="m0 0-1e-3 -3e-3v-1e-3z" fill="#f1f1f1"/>
    </g>
    <g transform="translate(5068.2 1082.3)">
     <path d="m0 0s-1e-3 1e-3 -2e-3 1e-3c0 0-1e-3 1e-3 -2e-3 1e-3z" fill="#f1f1f1"/>
    </g>
    <g transform="translate(5122.5 1058.8)">
     <path d="m0 0c-2e-3 1e-3 -5e-3 2e-3 -7e-3 3e-3 -3e-3 1e-3 -5e-3 2e-3 -8e-3 3e-3z" fill="#f1f1f1"/>
    </g>
    <g transform="translate(5221.4 980.88)">
     <path d="m0 0c3e-3 -3e-3 6e-3 -6e-3 0.01-9e-3 4e-3 -4e-3 7e-3 -7e-3 0.011-0.01z" fill="#f1f1f1"/>
    </g>
    <g transform="translate(5085.1 1093.5)">
     <path d="m0 0h4e-3z" fill="#f1f1f1"/>
    </g>
    <g transform="translate(5242.4 912.49)">
     <path d="m0 0c-1e-3 5e-3 -2e-3 9e-3 -4e-3 0.013-1e-3 4e-3 -3e-3 7e-3 -4e-3 0.01z" fill="#f1f1f1"/>
    </g>
    <g transform="translate(5202.7 976.01)">
     <path d="m0 0c-1e-3 0-2e-3 1e-3 -3e-3 2e-3s-2e-3 1e-3 -3e-3 2e-3z" fill="#f1f1f1"/>
    </g>
    <g transform="translate(4949.4 1116.5)">
     <path d="m0 0c1e-3 1e-3 2e-3 1e-3 3e-3 2e-3l3e-3 3e-3z" fill="#f1f1f1"/>
    </g>
    <g transform="translate(5168.4 1025.5)">
     <path d="m0 0c-2e-3 1e-3 -3e-3 2e-3 -5e-3 3e-3 -4e-3 1e-3 -7e-3 2e-3 -0.01 4e-3z" fill="#f1f1f1"/>
    </g>
    <g transform="translate(5226.7 939.68)">
     <path d="m0 0c0 4e-3 -1e-3 8e-3 -1e-3 0.011-1e-3 3e-3 -2e-3 6e-3 -2e-3 9e-3z" fill="#f1f1f1"/>
    </g>
    <g transform="translate(3997 -305.12)">
     <g clip-path="url(#clipPath124-0)" opacity=".7">
      <g transform="translate(885.76 1247.7)">
       <path d="m0 0c-1.612-0.991-3.259-1.908-4.942-2.76 1.638 0.94 3.286 1.858 4.942 2.76" fill="#333"/>
      </g>
     </g>
    </g>
    <g transform="translate(3997 -305.12)">
     <g clip-path="url(#clipPath140-4)" opacity=".7">
      <g transform="translate(1067.6 1260.4)">
       <path d="m0 0c1.773-0.663 3.54-1.342 5.293-2.052-1.792 0.608-3.559 1.294-5.293 2.052" fill="#333"/>
      </g>
     </g>
    </g>
    <g transform="translate(3997 -305.12)">
     <g clip-path="url(#clipPath156-3)" opacity=".5">
      <g transform="translate(1223.8 1193.6)">
       <path d="m0 0c-1.601-16.333 6.868-33.321 20.671-41.464-7.514 0.154-15.035 0.309-22.549 0.463 9.31-6.271 18.618-12.543 27.928-18.814-5.46-0.695-10.921-1.382-16.382-2.07 4.287-6.347 8.573-12.687 12.86-19.027-5.161-0.377-10.322-0.761-15.484-1.137 4.216-7.406 7.788-15.218 10.637-23.293-5.351-0.176-10.696-0.35-16.039-0.525 9.127-4.428 16.529-12.598 20.234-22.318-6.147-0.589-12.295-1.18-18.436-1.77 6.315-6.496 12.63-13 18.945-19.496-5.764 3.975-13.777 4.05-19.58 0.189 7.273-3.823 12.493-11.595 13.408-19.981-4.693-2.705-6.849-27.068-8.501-43.863-1.426-14.572-10.749-26.784-19.692-38.09-9.872-12.473-21.141-25.807-36.54-28.281l-369.78-25.858c-15.601 0.307-28.609 11.943-40.119 22.92-10.43 9.952-21.362 20.748-24.81 34.979-3.966 16.401-9.491 40.228-14.515 42.252-0.261 8.433 3.819 16.856 10.49 21.655-6.278 3.013-14.202 1.826-19.365-2.913 5.35 7.311 10.706 14.632 16.055 21.943-6.17-0.272-12.332-0.542-18.502-0.813 2.309 10.14 8.502 19.26 16.931 24.916-5.323-0.571-10.64-1.141-15.956-1.711 1.698 8.392 4.14 16.625 7.292 24.546-5.164-0.345-10.328-0.684-15.5-1.03 3.37 6.875 6.733 13.75 10.094 20.632-5.502-0.079-11.006-0.158-16.518-0.23l25.038 22.518c-7.419-1.199-14.838-2.397-22.265-3.598 12.543 9.986 18.558 27.987 14.7 43.938-17.073-7.703-29.705-25.045-32.217-44.199-6.509 9.164-5.589 22.232-0.617 32.314 4.964 10.089 13.299 17.862 21.444 25.392 11.197 10.342 22.385 20.682 33.574 31.022 1.988 10.134 2.062 20.667 0.212 30.845 5.331-4.242 11.271 6.855 2.81 11.054 5.811-2.787 9.967 4.196 6.673 9.467 7.184-2.974 16.69 8.579 11.644 14.537 15.044 0.326 30.982 12.351 24.716 13.121 12.414-0.852 24.136 12.797 19.139 12.913 6.828 0.256 14.215 2.454 17.958 8.362 3.751 5.908 1.189 15.884-5.576 16.916 15.87 3.821 33.953 7.241 47.368-2.457 8.78-6.347 13.541-17.069 21.041-24.995 5.469-5.776 14.215-9.673 21.307-8.16-7.537-4.432-15.075-8.863-22.611-13.302-3.838-2.263-8.091-4.601-12.456-3.798-3.514 0.649-6.368 3.215-9.428 5.125-7.717 4.809-17.686 5.434-25.898 1.703 7.481 2.939 16.744-5.079 16.562-13.725-0.193-9.159-7.995-16.581-16.492-19.071-8.499-2.481-17.57-1.144-26.314 0.216 18.906-7.045 40.503-5.695 58.454 3.446-16.294-9.338-31.525-20.657-45.27-33.66 10.844-7.348 25.28-2.48 36.705 3.713 11.433 6.194 23.622 13.816 36.321 11.288-14.718-4.116-6.517-11.366 11.239-7.206-7.111-2.117-13.987-5.065-20.46-8.765 14.208 1.36 28.07-4.234 41.893-7.966 12.873-3.478 26.162-5.368 39.441-5.471 13.135 1.949 26.032 5.671 38.288 10.906 13.177 5.62 26.125 13.089 40.376 13.719-6.924 2.763-14.136 4.727-21.472 5.833 18.162-1.648 25.274 6.673 10.119 8.7 12.231 4.271 25.362-1.581 37.538-6.124 12.183-4.542 27.157-7.353 36.873 1.433-15.429 10.955-32.079 20.052-49.506 27.024 19.047-6.546 40.614-4.877 58.356 4.73-8.477-2.564-17.266-5.15-26.027-3.875-8.763 1.282-17.528 7.546-18.994 16.589-1.376 8.537 6.674 17.764 14.491 15.897-8.644 2.551-18.43 0.545-25.402-5.291-2.772-2.318-5.233-5.256-8.622-6.387-4.212-1.402-8.748 0.321-12.871 2.027-8.081 3.346-16.161 6.685-24.243 10.025 7.226-0.512 15.352 4.565 19.965 11.046 6.331 8.893 9.553 20.174 17.365 27.681 11.926 11.469 30.317 10.601 46.556 9.024-6.555-1.964-7.696-12.197-3.167-17.527 4.536-5.329 12.158-6.477 18.955-5.78-4.932-0.811 8.575-12.696 20.742-10.125-6.09-1.633 11.367-11.324 26.302-9.553-4.161-6.603 6.854-16.72 13.554-12.775-2.529-5.678 2.56-12.015 7.926-8.447-7.787-5.335-0.361-15.497 4.329-10.554-0.416-10.336 1.115-20.757 4.494-30.515 12.527-8.683 25.046-17.365 37.564-26.049 9.123-6.322 18.451-12.86 24.778-22.159 6.318-9.292 9.049-22.106 3.886-32.086-5.153 18.619-20.083 34.032-38.062 39.285" fill="#333"/>
      </g>
     </g>
    </g>
    <g transform="translate(4835 826.15)">
     <path d="m0 0c2.646 0.079 4.9 1.827 7.042 3.383 6.497 4.717 13.787 8.338 21.472 10.664-1.907-2.889-4.581-5.264-7.675-6.815 5.779-0.938 11.348 2.329 16.109 5.735 4.762 3.407 9.696 7.24 15.535 7.669 7.871 0.577 14.833-5.297 19.169-11.891 1.113-1.693 2.179-3.518 3.883-4.615 1.898-1.221 4.29-1.343 6.544-1.227 6.142 0.315 12.331 2.206 17.073 6.122 4.744 3.916 7.86 10.005 7.411 16.14-0.306 4.18-2.186 8.21-1.887 12.391 0.041 0.583 0.105 1.237-0.267 1.688-0.361 0.436-0.987 0.508-1.546 0.588-3.504 0.5-6.75 2.585-8.662 5.563-0.401 0.623-0.806 1.333-1.511 1.564-0.637 0.209-1.325-0.045-1.995-0.052-1.852-0.019-3.137 1.731-4.467 3.019-3.605 3.494-9.665 4.097-13.889 1.385 2.251 1.025 5.26-0.815 5.372-3.286-1.979-1.857-5.351-1.974-7.454-0.259-1.307 1.066-2.069 2.65-3.166 3.932-2.605 3.047-6.945 4.141-10.937 3.779s-7.75-1.974-11.428-3.566c-2.465-1.066-5.129-2.318-6.286-4.742 2.136 0.376 4.429-0.899 5.302-2.885 0.873-1.984 0.297-4.49-1.305-5.951-1.432-1.306-3.43-1.743-5.328-2.132-2.575-0.527-5.169-1.056-7.797-1.09-2.552-0.032-5.097 0.405-7.648 0.325-7.023-0.221-13.743-4.705-16.641-11.106 2.537 2.167 5.692 3.6 8.993 4.085-2.452-2.706-4.433-5.836-5.829-9.21 1.306-0.576 2.469-1.473 3.358-2.59-0.134 0.169-10.932-8.344-11.948-9.16-1.203-0.968-4.047-2.527-4.001-4.343 0.048-1.888 2.817-3.159 4.404-3.112" fill="#c59b6d"/>
    </g>
    <g transform="translate(5128.8 826.15)">
     <path d="m0 0c-2.646 0.079-4.9 1.827-7.042 3.383-6.497 4.717-13.787 8.338-21.472 10.664 1.907-2.889 4.581-5.264 7.675-6.815-5.779-0.938-11.349 2.329-16.109 5.735-4.762 3.407-9.697 7.24-15.535 7.669-7.871 0.577-14.833-5.297-19.168-11.891-1.115-1.693-2.18-3.518-3.884-4.615-1.899-1.221-4.29-1.343-6.544-1.227-6.143 0.315-12.33 2.206-17.073 6.122-4.744 3.916-7.86 10.005-7.411 16.14 0.305 4.18 2.185 8.21 1.887 12.391-0.042 0.583-0.105 1.237 0.268 1.688 0.359 0.436 0.986 0.508 1.546 0.588 3.503 0.5 6.749 2.585 8.662 5.563 0.399 0.623 0.805 1.333 1.51 1.564 0.636 0.209 1.325-0.045 1.995-0.052 1.851-0.019 3.137 1.731 4.466 3.019 3.606 3.494 9.666 4.097 13.89 1.385-2.251 1.025-5.26-0.815-5.373-3.286 1.98-1.857 5.352-1.974 7.454-0.259 1.309 1.066 2.07 2.65 3.166 3.932 2.606 3.047 6.946 4.141 10.938 3.779s7.75-1.974 11.428-3.566c2.465-1.066 5.129-2.318 6.286-4.742-2.135 0.376-4.429-0.899-5.302-2.885-0.872-1.984-0.297-4.49 1.304-5.951 1.433-1.306 3.431-1.743 5.33-2.132 2.574-0.527 5.168-1.056 7.796-1.09 2.552-0.032 5.096 0.405 7.648 0.325 7.023-0.221 13.742-4.705 16.641-11.106-2.537 2.167-5.692 3.6-8.993 4.085 2.452-2.706 4.433-5.836 5.829-9.21-1.306-0.576-2.469-1.473-3.359-2.59 0.135 0.169 10.933-8.344 11.948-9.16 1.203-0.968 4.048-2.527 4.002-4.343-0.048-1.888-2.817-3.159-4.404-3.112" fill="#c59b6d"/>
    </g>
    <g transform="translate(4902.4 811.36)">
     <path d="m0 0c-0.154 0.71-0.239 1.437-0.477 2.123-0.838 2.771-2.387 5.276-4.41 7.231-4.054 3.934-9.464 6.076-14.859 6.552 5.288-1.122 10.318-3.63 13.794-7.558 1.756-1.929 2.999-4.269 3.583-6.725 0.611-2.454 0.411-5.051-0.405-7.396-1.685-4.734-5.832-8.352-10.538-10.3-4.72-1.992-10.046-2.594-15.133-1.821-5.065 0.753-10.007 2.923-13.512 6.547-1.75 1.791-3.103 3.955-3.781 6.328-0.641 2.376-0.617 4.93 0.102 7.315 0.669 2.219 1.901 4.236 3.491 5.987-0.751-1.638-1.114-3.483-0.98-5.407 0.429-6.135 5.75-10.761 11.884-10.332 6.135 0.43 10.76 5.75 10.331 11.885-0.395 5.646-4.936 10.003-10.44 10.328 1.163 0.343 2.349 0.622 3.551 0.825 2.635 0.436 5.35 0.584 8.053 0.324-1.329 0.275-2.682 0.46-4.046 0.554-1.362 0.033-2.739 0.086-4.108-0.053-2.741-0.209-5.469-0.823-8.066-1.84-2.587-1.035-5.037-2.501-7.135-4.425-2.095-1.92-3.795-4.356-4.762-7.121-0.977-2.76-1.137-5.836-0.417-8.711 0.737-2.873 2.285-5.479 4.259-7.608 4.008-4.264 9.532-6.672 15.131-7.56 5.63-0.793 11.479-0.128 16.716 2.191 2.603 1.176 5.042 2.772 7.09 4.814 2.051 2.029 3.681 4.552 4.528 7.358 0.25 0.689 0.369 1.414 0.49 2.136 0.167 0.713 0.133 1.454 0.183 2.18 0.049 0.728-0.08 1.455-0.117 2.179" fill="#fff"/>
    </g>
    <g transform="translate(5102 821.43)">
     <path d="m0 0c-0.154 0.71-0.239 1.437-0.478 2.123-0.837 2.771-2.386 5.276-4.41 7.231-4.053 3.934-9.464 6.076-14.858 6.552 5.288-1.122 10.317-3.63 13.794-7.558 1.756-1.929 2.999-4.269 3.583-6.725 0.61-2.454 0.411-5.051-0.405-7.396-1.686-4.734-5.832-8.352-10.539-10.3-4.719-1.992-10.045-2.594-15.132-1.821-5.066 0.753-10.007 2.923-13.512 6.547-1.75 1.791-3.104 3.955-3.781 6.328-0.642 2.376-0.617 4.93 0.101 7.315 0.67 2.219 1.901 4.235 3.492 5.986-0.751-1.638-1.115-3.482-0.98-5.407 0.429-6.135 5.749-10.76 11.884-10.331 6.135 0.43 10.76 5.75 10.331 11.885-0.395 5.646-4.937 10.003-10.44 10.328 1.163 0.343 2.348 0.622 3.55 0.825 2.636 0.436 5.351 0.584 8.054 0.324-1.329 0.275-2.682 0.46-4.046 0.554-1.362 0.033-2.739 0.086-4.108-0.053-2.742-0.209-5.469-0.823-8.067-1.84-2.587-1.035-5.037-2.501-7.135-4.425-2.094-1.92-3.794-4.356-4.761-7.121-0.978-2.76-1.138-5.836-0.417-8.711 0.737-2.873 2.285-5.479 4.259-7.608 4.007-4.264 9.532-6.672 15.13-7.56 5.63-0.793 11.48-0.128 16.717 2.191 2.603 1.176 5.041 2.772 7.09 4.814 2.051 2.029 3.681 4.552 4.527 7.358 0.25 0.689 0.37 1.414 0.491 2.136 0.167 0.713 0.132 1.454 0.182 2.18 0.049 0.728-0.08 1.455-0.116 2.179" fill="#fff"/>
    </g>
    <g transform="translate(4818.6 495.2)">
     <path d="m0 0c-6e-3 4e-3 -0.012 7e-3 -0.018 0.011-4e-3 3e-3 -0.01 5e-3 -0.015 8e-3z" fill="#f1f1f1"/>
    </g>
    <g transform="translate(5070.4 470.72)">
     <path d="m0 0-9e-3 -3e-3c-3e-3 -1e-3 -5e-3 -2e-3 -8e-3 -2e-3z" fill="#f1f1f1"/>
    </g>
    <g transform="translate(5119.7 502.4)">
     <path d="m0 0c-1e-3 -2e-3 -3e-3 -4e-3 -4e-3 -7e-3z" fill="#f1f1f1"/>
    </g>
    <g transform="translate(4864.7 766.69)">
     <path d="m0 0c11.068 1.427 22.588-0.918 32.218-6.56-5.907 5.51-12.15 10.66-18.682 15.412 11.357-0.203 22.547-5.247 30.22-13.62-2.875 8.342-7.742 15.991-14.081 22.128 11.878-0.884 23.041-8.423 28.298-19.112-0.367 10.889-3.257 21.684-8.379 31.299 7.616-5.312 14.011-12.363 18.556-20.46-1.241 7.347-3.399 14.538-6.408 21.354 11.315-1.346 21.375-10.135 24.228-21.168-8.055 6.501-8.678 18.338-8.633 28.69 11.857-2.802 21.77-12.62 24.687-24.449-0.671 10.227 0.171 20.553 2.492 30.538 6.452-9.759 10.685-20.975 12.29-32.562 9.191 10.954 20.107 20.459 32.222 28.055-3.802-6.553-7.138-13.376-9.974-20.4 13.492 3.453 26.763 7.773 39.701 12.924-6.842-4.482-13.685-8.965-20.529-13.449l36.513-0.835c-8.472-3.983-17.094-7.649-25.84-10.986 14.129 0.788 28.389-0.81 41.993-4.705-19.829-1.517-35.863-15.957-53.611-24.929-23.614-11.938-50.546-14.052-76.59-13.277-9.691 0.288-21.891-0.674-31.191 2.58-8.71 3.048-11.776 11.251-17.413 17.818-7.115 8.29-20.497 17.208-32.087 15.714" fill="#4d4d4d"/>
    </g>
    <g transform="translate(5199.8 624.11)">
     <path d="m0 0c9.92-6.087 25.51-27.891 25.99-28.571-14.3 42.576-45.591 70.106-45.591 70.106 11.941-3.324 33.541-22.132 33.541-22.132-21.4 37.9-65.74 53.373-65.74 53.373 27.19-1.368 45.779-10.78 46.36-11.074-32.539 31.712-91.92 37.514-91.92 37.514 18.14 4.836 41.79 4.467 41.79 4.467-26.32 14.515-79.61 4.608-79.61 4.608 13.25 9.563 49.87 14.978 49.87 14.978-41.01 7.884-88.87-17.018-88.87-17.018 9.55 14.617 45.82 24.281 45.82 24.281-44.48-0.856-68.69-26.119-68.69-26.119 5.83 18.37 22.46 32.282 22.97 32.719-36.53-13.45-41.04-49.092-41.04-49.092-5.16 5.718-8.1 18.262-8.1 18.262s-0.83-12.762-4.99-19.033c0 0-10.38 34.767-48.79 43.818 0.58-0.37 19.36-12.199 28.17-29.714 0 0-28.15 22.19-72.34 17.842 0 0 37.52-5.332 49.39-18.69 0 0-51.52 19.059-90.82 6.465 0 0 37.16-1.083 51.87-9.001 0 0-54.42 3.577-78.07-13.878 0 0 23.36 3.132 42.11 0.47 0 0-57.83-12.685-84.8-47.898 0.52 0.36 17.37 11.854 44.08 16.388 0 0-41.34-20.494-56.25-60.518 0.56 0.638 18.45 21.209 29.54 25.818 0 0-26.42-30.923-33.53-74.75 0.36 0.731 12.17 24.131 20.99 31.317-0.51-0.781-19.28-29.999-13.14-68.276 0 0 4.82 35.432 12.63 42.156 0 0-7.76-26.296-1.38-51.324h0.01c0.95-3.736 2.22-7.447 3.88-11.032 0 0-0.48 3.426-0.56 8.136-0.12 7.002 0.65 16.841 5.18 22.509 0 0-0.98-14.424 3.41-27.741 1.69-5.137 4.18-10.108 7.84-14.02 0 0-1.67 5.448-0.71 12.644 0.46 3.509 1.57 7.439 3.78 11.36-0.02-0.336-0.3-4.787 1.08-10.722 1.71-7.347 5.98-16.977 16.46-23.861-0.24 0.301-8.1 10.528-8.67 22.316v9e-3c-0.04 0.915-0.04 1.83 0.01 2.762 0 0 2.65-4.828 6.87-10.823 0.01-8e-3 0.01-8e-3 0.01-0.016 4.6-6.541 11.07-14.475 17.99-19.042-0.37 0.385-3.44 3.718-5.71 10.024-1.38 3.829-2.47 8.749-2.47 14.777 0 0 6.25-11.897 13.23-16.758 0 0-3.98 8.296-2.63 13.652 13.468-28.087 39-29.255 52.288-37.077 17.425-7.721 22.932-9.32 35.642-12.132-1.22 0.772-50.81 38.789-18.34 78.359 0.24 0.294 0.48 0.579 0.73 0.873 0.64 0.773 1.32 1.554 2.02 2.334 1.3 1.445 2.55 2.788 3.75 4.014 0.31 0.319 0.62 0.63 0.93 0.932 2.31 2.309 4.45 4.249 6.45 5.894-0.01 0.017-0.03 0.025-0.04 0.042-8.67 9.152-18.54 17.514-29.38 24.868-3.31 2.25-6.77 4.451-9.21 7.389-1.91 2.301-3.12 4.979-3.98 7.699-4.77 15.231 1.64 31.796 13.1 44.255 11.46 12.468 27.45 21.418 43.79 29.152 16.57 7.833 34.24 14.734 52.76 17.84 5.54 0.941 11.16 1.529 16.85 1.697 18.66 0.562 37.05-3.392 55.12-7.313 9.37-2.032 19.341-4.375 25.61-10.554 3.52-3.46 5.5-7.808 7.25-12.116 5.39-13.248 9.12-26.968 11.13-40.871 1.059-7.288 1.62-14.81-0.83-21.863-4.09-11.805-15.78-20.403-25.111-29.873-0.489-0.495-0.969-0.999-1.449-1.502 2.13-1.344 4.44-2.931 6.93-4.82 0.36-0.269 0.72-0.538 1.08-0.815 1.4-1.082 2.859-2.258 4.38-3.534 0.83-0.696 1.62-1.394 2.38-2.082 0.301-0.252 0.7-0.453 0.87-0.773 18.33-34.801 0.69-58.301-16.84-71.802 2.88 0.831 5.73 1.713 8.53 2.72 9.18 3.325 17.56 7.985 25.9 12.628 4.23 2.351 8.62 4.853 11.1 8.573 1.8 2.677 2.46 5.835 4.44 8.437 4.67 6.138 14.77 7.221 21.69 11.62 3.05 1.94 5.47 4.542 8.65 6.347 4.91 2.779 11.07 3.358 16.87 4.383 1.139 0.202 2.27 0.42 3.389 0.664h0.011c2.66-16.02-3.69-25.071-4.03-25.532 9.32 8.143 16.28 23.903 18.74 30.006 0.64 1.578 0.97 2.511 0.97 2.511 0.15-0.655 0.27-1.31 0.36-1.965 1.76-12.023-4.59-23.551-4.78-23.886 10.05 8.756 12.28 19.856 12.42 27.471 0.1 5.03-0.72 8.53-0.79 8.824 1.81-2.292 3.16-4.642 4.19-6.935 3.88-8.715 2.84-16.481 2.84-16.481 4.42 6.398 5.899 14.819 6.12 22.485 0.31 10.846-1.91 20.192-1.91 20.192 3.92-3.669 6.25-9.706 7.63-15.39 1.851-7.514 2.03-14.424 2.03-14.424 1.72 6.154 2.35 12.502 2.27 18.689-0.27 22.804-10.13 43.357-10.13 43.357 6.49-4.215 13.94-23.878 17.46-34.079 1.28-3.728 2.04-6.197 2.04-6.197-0.02 2.981-0.17 5.895-0.46 8.724-3.33 34.373-23.88 57.369-23.88 57.369" fill="#c59b6d"/>
    </g>
    <g transform="translate(4780.2 518)">
     <path d="m0 0c-4e-3 2e-3 -8e-3 5e-3 -0.013 7e-3s-0.01 4e-3 -0.016 7e-3z" fill="#f1f1f1"/>
    </g>
    <g transform="translate(4790.4 515.71)">
     <path d="m0 0h-0.036z" fill="#f1f1f1"/>
    </g>
    <g transform="translate(4792.7 515.87)">
     <path d="m0 0c-6e-3 -1e-3 -0.013-1e-3 -0.019-2e-3 -8e-3 -1e-3 -0.016-2e-3 -0.024-4e-3z" fill="#f1f1f1"/>
    </g>
    <g transform="translate(4719 568.43)">
     <path d="m0 0c-1e-3 2e-3 -2e-3 4e-3 -4e-3 5e-3 0 1e-3 -1e-3 2e-3 -1e-3 2e-3z" fill="#f1f1f1"/>
    </g>
    <g transform="translate(5229.9 584.69)">
     <path d="m0 0c-2e-3 -5e-3 -5e-3 -0.01-8e-3 -0.015-5e-3 -8e-3 -9e-3 -0.018-0.013-0.028z" fill="#f1f1f1"/>
    </g>
    <g transform="translate(5215.6 563.95)">
     <path d="m0 0-0.011-0.011c-4e-3 -5e-3 -8e-3 -0.01-0.011-0.013z" fill="#f1f1f1"/>
    </g>
    <g transform="translate(5209.4 557.75)">
     <path d="m0 0c-1e-3 -1e-3 -2e-3 -1e-3 -2e-3 -2e-3 -1e-3 -1e-3 -2e-3 -2e-3 -3e-3 -2e-3z" fill="#f1f1f1"/>
    </g>
    <g transform="translate(5144 524.13)">
     <path d="m0 0-1e-3 -1e-3c-1e-3 0-1e-3 -1e-3 -1e-3 -1e-3z" fill="#f1f1f1"/>
    </g>
    <g transform="translate(5186.4 542.29)">
     <path d="m0 0-0.015-6e-3c-0.01-5e-3 -0.02-0.011-0.031-0.015z" fill="#f1f1f1"/>
    </g>
    <g transform="translate(5199.8 550.05)">
     <path d="m0 0c-3e-3 -3e-3 -6e-3 -4e-3 -9e-3 -7e-3 -4e-3 -2e-3 -7e-3 -5e-3 -0.011-7e-3z" fill="#f1f1f1"/>
    </g>
    <g transform="translate(5187.9 543)">
     <path d="m0 0c-7e-3 -3e-3 -0.014-7e-3 -0.021-0.01l-9e-3 -6e-3z" fill="#f1f1f1"/>
    </g>
    <g transform="translate(4739.8 570.74)">
     <path d="m0 0c2e-3 -1e-3 5e-3 -3e-3 8e-3 -5e-3l1e-3 -1e-3z" fill="#f1f1f1"/>
    </g>
    <g transform="translate(4764.4 549.51)">
     <path d="m0 0s0-1e-3 1e-3 -1e-3c0 0 1e-3 0 1e-3 -1e-3z" fill="#f1f1f1"/>
    </g>
    <g transform="translate(3997 -305.12)">
     <path d="m1007.3 910.79c-4.376-0.021-8.702-0.856-12.998-1.688-4.175-0.809-8.349-1.618-12.523-2.427-1.924-0.373-3.849-0.746-5.755-1.203-5.693-1.369-11.221-3.421-17.002-4.422-2.753-0.478-5.568-0.715-8.356-0.434-0.922 0.092-2.677-0.019-3.501 0.325-1.173 0.489-0.844 1.39-1.554 2.411-4.886-0.832-9.851-2.879-14.614-4.297-0.92-0.274-1.857-0.557-2.642-1.109-1.994-1.403-2.49-4.126-2.558-6.564-0.22-7.983 2.402-15.884 6.573-22.694 4.17-6.811 9.836-12.603 15.974-17.713 2.968-2.473 6.082-4.815 9.552-6.515 3.852-1.886 8.058-2.939 12.273-3.737 13.322-2.521 27.337-2.561 40.197 1.739 12.858 4.3 24.453 13.255 30.283 25.496 1.523 3.2 2.658 6.653 2.695 10.196 0.03 2.943-0.698 5.85-1.739 8.601-5.243 13.848-19.349 24.036-34.151 24.036-0.05 0-0.103-1e-3 -0.154-1e-3" fill="url(#linearGradient1500)"/>
    </g>
    <g transform="translate(4945.5 586.47)">
     <path d="m0 0c-1.016-3.503 2.993-6.81 2.496-10.423-0.115-0.828-0.467-1.632-0.407-2.465 0.103-1.438 1.351-2.472 2.312-3.548 2.594-2.901 3.443-7.252 2.13-10.917 1.19 1.373 3.335 1.209 5.117 0.863 1.125-0.218 2.269-0.474 3.245-1.074 0.975-0.602 1.765-1.619 1.801-2.763 0.711 2.735 3.774 4.019 6.457 4.907 1.64 0.542 3.475 1.072 5.038 0.338 1.332-0.625 2.106-2.011 2.793-3.311 1.685 0.87 3.43 1.724 5.315 1.92 1.885 0.197 3.962-0.392 5.071-1.929 0.767 1.09 1.686 2.088 2.791 2.833 3.616 2.436 9.087 1.478 11.659-2.041 1.628 1.746 3.502 3.612 5.885 3.749 1.657 0.094 3.225-0.683 4.703-1.44 1.133-0.581 2.265-1.161 3.398-1.742 0.367 0.072 0.558 0.284 0.925 0.356 0.303 2.099 0.62 4.246 1.609 6.123 0.99 1.876 2.797 3.461 4.914 3.589 0.322 0.02 0.663 0.01 0.943 0.168 0.253 0.144 0.415 0.402 0.567 0.65 1.246 2.031 2.492 4.062 3.738 6.093 0.167 0.271 0.332 0.631 0.137 0.884-0.118 0.154-0.326 0.198-0.502 0.278-0.844 0.381-0.948 1.579-0.606 2.44s0.984 1.591 1.235 2.483c0.076 0.273 0.113 0.573 2e-3 0.833-0.113 0.267-0.36 0.448-0.563 0.655-0.857 0.872-0.905 2.412-0.104 3.335-0.657 3.499-1.097 7.015-1.309 10.568 1.873-0.419 3.789-0.876 5.381-1.947 1.242-0.835 2.217-1.999 3.176-3.147 1.129-1.35 2.28-2.74 2.873-4.397 0.342-0.954 0.487-1.969 0.805-2.932 0.472-1.424 1.328-2.762 1.358-4.262 0.02-0.941-0.292-1.853-0.598-2.742-0.714-2.062-1.427-4.125-2.14-6.188-0.259-0.746-0.613-1.59-1.368-1.819-0.974-0.296-1.863 0.61-2.481 1.419-0.256 0.167-0.552-0.144-0.706-0.41-1.412-2.448-3.217-4.67-5.325-6.553-0.611-0.546-1.387-1.099-2.18-0.893 0.784-2.155-0.069-4.691-1.533-6.456-1.465-1.765-3.894-2.673-6.156-2.301-0.801-1.956-1.83-3.817-3.062-5.534-0.78-1.088-1.677-2.146-2.874-2.746-2.247-1.125-5.1-0.319-6.953 1.379-1.851 1.698-2.872 4.115-3.586 6.524 0.366-2.415-0.803-4.995-2.86-6.312-0.408-0.261-0.862-0.481-1.345-0.495-0.551-0.017-1.074 0.231-1.561 0.491-2.802 1.497-5.29 3.578-7.257 6.072-0.285-3.578-3.403-6.718-6.98-7.028-0.315-0.028-0.645-0.033-0.935 0.094-0.402 0.179-0.652 0.58-0.879 0.957-0.968 1.617-1.937 3.233-2.905 4.849-1.093-1.965-2.486-3.764-4.114-5.315-0.494-0.471-1.06-0.941-1.739-1-0.578-0.051-1.136 0.207-1.643 0.489-2.182 1.213-4.036 3.007-5.321 5.147-1.384-2.96-3.378-6.352-6.642-6.51-1.574-0.077-3.065 0.665-4.423 1.465-1.715 1.009-3.504 2.363-3.821 4.329-0.358 2.22 1.292 4.211 2.827 5.854-3.462 2.067-7.04 4.24-9.277 7.596-1.504 2.257-2.396 5.032-4.556 6.672-0.893 0.677-2.003 1.164-2.549 2.142-0.49 0.877-0.409 1.95-0.313 2.95 0.35 3.665 0.7 7.329 1.05 10.993 3.222 1.903 7.324 0.941 9.822-1.847" fill="#f1f1f1"/>
    </g>
    <g transform="translate(4944.2 556.13)">
     <path d="m0 0c2.246-0.202 4.556 0.389 6.43 1.645 0.993-8.492 9.173-15.503 17.716-15.188 2.893 0.106 5.711 0.94 8.594 1.203 4.18 0.381 8.366-0.445 12.557-0.67 13.255-0.71 26.707 4.99 35.416 15.006 8.71 10.016 12.487 24.129 9.945 37.155 13.019 4.84 27.499 1.344 40.868-2.421 4.608-1.297 9.65-2.956 12.052-7.095 1.698-2.926 1.696-6.488 2.233-9.827 1.138-7.077 4.83-13.505 6.362-20.507 1.531-7.001 0.063-15.649-6.288-18.97-5.345-2.795-11.805-0.75-17.836-0.777-10.34-0.049-19.498-6.289-27.911-12.3-12.946-9.249-26.329-18.757-41.86-22.212-16.54-3.682-34.046-0.03-49.43 7.072-15.385 7.103-28.988 17.486-42.346 27.911-4.269 3.333-8.538 6.687-12.417 10.468-1.722 1.679-3.405 3.502-4.264 5.75-1.075 2.814-0.734 5.964-0.087 8.905 1.032 4.696 2.92 9.397 6.491 12.614 3.539 3.188 8.292 4.561 12.663 6.454 3.379 1.463 6.601 3.287 9.6 5.423 1.443 1.027 7.097 7.217 8.475 6.929 1.979-0.412 4.331-8.9 5.044-10.707 1.557-3.945 2.972-7.945 4.243-11.991 1.437-4.57 2.688-9.198 3.75-13.87" fill="#413635"/>
    </g>
    <path d="m5105.2 514.34c-4.674 22.755-3.5243 69.41-25.674 76.41-5.215 1.649-29.775-24.427-34.918-26.288-5.142-1.861-9.28-7.351-7.998-12.667 0.618-2.566 2.357-4.743 3.051-7.289 1.852-6.79-4.039-13.093-9.708-17.265-5.05-3.716-10.375-7.06-15.917-9.995-5.989-3.172-12.369-5.9-19.12-6.49-5.958-0.52-11.917 0.647-17.755 1.98-7.71 1.759-15.369 3.726-22.987 5.849-7.033 1.961-14.782 4.273-19.112 10.244-5.337 7.361-17.742 41.276-15.803 50.158-8.288-1.229-18.474 4.6802-26.7 6.2672-3.109 0.599-7.8946-8.1345-11.376-8.2155-11.779-17.612 8.211-6.5046-8.4274-14.816-1.058-0.816 4.6535-16.118 4.2075-17.378-17.567 25.933-6.647-21.777-6.777-33.086-0.129-11.309 2.65-22.881 9.307-32.023 5.893-8.093 14.215-13.638 23.325-18.005 1.366-2.041 19.146-4.227 36.896-11.227 32.922-12.982 65.852-10.915 99.686 4.577 13.096 27.105 51.701 28.912 54.321 34.158 3.537 2.271 6.622 4.448 8.857 6.379 11.883 10.266 5.78 3.34 2.621 18.723" fill="#f1f1f1"/>
    <g transform="translate(5126.2 543.01)">
     <path d="M 0,0 C 0.745,1.038 1.45,2.096 2.108,3.181 1.545,2.057 0.848,0.991 0,0" fill="#c6c0b5"/>
    </g>
    <g transform="translate(5173.3 612.38)">
     <path d="m0 0c-0.632 10.792-1.474 22.825-8.414 30.217 6.887-4.527 12.268-12.064 14.886-20.675-3.96 13.829-12.509 25.965-23.514 33.17 7.251-2.371 14.191-6.127 20.438-11.072-9.973 14.442-24.163 24.944-39.607 29.299 8.349-0.796 16.627-2.9 24.539-6.241-10.208 9.775-22.291 16.887-35.063 20.655 8.522-2.514 17.037-5.02 25.551-7.526-9.866 9.736-21.234 17.406-33.371 22.528 7.82 0.511 15.751-0.699 23.25-3.542-11.683 15.043-27.594 25.631-44.604 29.708 5.683-1.198 10.678-1.205 16.617-0.887-5.79 5.351-13.146 8-20.455 8.906-7.311 0.905-14.661 0.178-21.958-0.538 5.871 1.632 11.9 2.543 17.959 2.709-9.773 8.717-22.389 13.013-34.542 11.77 7.51 0.757 15.103 0.628 22.621-0.379-5.258 2.689-9.654 7.363-14.964 9.915-4.489 2.154-9.389 2.684-14.201 3.186-8.401 0.883-17.197 1.693-24.889-2.079-5.741-2.825-10.386-8.007-16.082-10.953 5.291 7.837 12.557 13.851 20.695 17.165-4.016-0.762-8.033-1.524-12.049-2.286-1.739-0.326-3.5-0.663-5.114-1.471-1.724-0.86-3.206-2.229-4.672-3.579-3.975-3.673-7.957-7.338-11.94-11.012 3.327 6.221 7.034 12.174 11.081 17.786-9.416-5.176-18.086-12.109-25.58-20.457-0.286-0.314-0.571-0.636-0.815-1.002l3.354-47.963c8.864 1.849 17.773 4.049 25.532 9.154 2.538 1.675 4.953 3.652 7.721 4.772 2.761 1.12 6.199 0.898 8.944-0.408 1.751-0.831 3.485-1.743 5.177-2.729 7.968-4.594 15.285-10.774 21.49-18.182-2.885 7.587-7.109 14.509-12.317 20.23 12.443-2.025 24.042-10.909 30.572-23.426-2.467 8.773-5.491 17.357-9.033 25.646 9.348-5.272 15.352-16.98 16.452-28.88 0.899-9.649-1.066-19.401 0.069-29.026 1.374-11.729 7.295-23.024 5.762-34.661-1.867-14.228-14.355-24.315-15.29-38.682 2.147 9.355 10.749 14.287 15.775 21.954 3.351 5.109 5.105 11.603 4.876 18.074 2.109-3.328 2.03-7.922 0.82-11.732-1.203-3.809-3.376-7.061-5.294-10.448-2.565-4.555-4.701-9.445-6.352-14.55 2.429 6.951 8.938 10.801 13.265 16.468 4.489 5.884 6.593 13.764 7.429 21.602 2.636-7.434-0.568-15.633-3.716-22.661-1.47-3.284-2.976-6.624-5.24-9.224-2.984-3.434-7.023-5.303-10.838-7.387-2.623-1.437-5.237-3.1-7.603-5.076 0.032-0.066 0.065-0.13 0.097-0.195 0.317-0.337 0.595-0.726 0.805-1.184 0.052-0.113 0.107-0.221 0.159-0.332 0.537 0.352 1.087 0.681 1.655 0.973 1.947 0.992 4.021 1.582 6.045 2.339 12.546 4.647 22.947 16.085 27.663 30.28-2.339-7.373-5.075-14.559-8.188-21.522 6.321 4.105 11.696 10.076 15.546 17.18-4.631-10.01-9.551-19.853-15.871-28.492-5.072-6.923-11.165-13.048-18.077-17.276 0.349-0.606 0.698-1.214 1.047-1.82 10.793 3.882 20.715 10.886 28.492 20.306-4.492-12.199-13.466-22.379-23.704-28.685 0.254-0.455 0.503-0.914 0.755-1.371 6.713 1.556 13.116 4.727 18.663 9.28-2.205-5.76-4.411-11.51-6.616-17.268 3.929 6.628 10.014 11.036 15.001 16.616 8.891 9.951 14.271 23.987 14.739 38.42 1.143-14.695 2.293-29.388 3.444-44.081-1.1387 7.7827 6.3159 14.344 5.082 21.839 3.807-13.644 5.82-27.912 5.948-42.161 6.329 16.198 8.855 34.427 7.245 52.28-1.568 17.364-6.898 35.392-1.885 51.702-2.313-14.883-0.27-30.896 6.476-44.075 6.744-13.17 18.333-23.223 31.281-25.98-10.038 12.299-12.176 30.328-13.16 47.047" fill="#f1f1f1"/>
    </g>
    <g transform="translate(5179.1 623.26)">
     <path d="M 0,0 C -0.271,1.135 -0.586,2.259 -0.946,3.372 -0.571,2.268 -0.248,1.145 0,0" fill="#c6c0b5"/>
    </g>
    <g transform="translate(4978.2 746.57)">
     <path d="m0 0c-8.583 7.224-18.133 12.882-28.178 16.697 4.788-4.993 9.288-10.373 13.448-16.07-4.455 3.084-8.909 6.158-13.355 9.242-1.642 1.133-3.299 2.282-5.126 2.895-1.71 0.575-3.501 0.664-5.268 0.745-4.084 0.195-8.167 0.391-12.25 0.587 8.52-2.149 16.551-7.094 22.881-14.118-6.049 2.125-11.371 6.609-17.449 8.608-8.141 2.665-16.739 0.638-24.936-1.405-4.696-1.166-9.474-2.373-13.62-5.132-4.902-3.266-8.605-8.506-13.438-11.9 7.304 2.043 14.807 3.227 22.349 3.523-12.208-0.461-24.105-6.471-32.569-16.463 6.023 0.68 12.12 0.615 18.161-0.183-7.325-0.307-14.705-0.609-21.818-2.523-7.113-1.915-14.028-5.562-19.017-11.667 5.926 0.513 10.87 1.215 16.332 3.191-16.276-6.404-30.56-19.102-40.036-35.627 7.031 3.861 14.717 6.163 22.531 6.745-11.306-6.761-21.496-15.939-29.911-26.954 8.083 3.666 16.166 7.332 24.256 11.008-12.124-5.508-23.1-14.232-31.848-25.333 7.37 4.41 15.276 7.645 23.432 9.597-14.688-6.463-27.278-18.839-35.144-34.528 5.498 5.766 11.848 10.452 18.698 13.809-9.895-8.667-16.672-21.874-18.668-36.12 1.394 8.893 5.673 17.105 11.863 22.546-5.844-8.286-5.003-20.319-4.126-31.094 1.351-16.693 1.744-34.844-6.485-48.421 12.438 4.533 22.516 16.1 27.361 30.081 4.846 13.991 4.64 30.131 0.278 44.547 7.235-15.453 4.466-34.048 5.33-51.462 0.89-17.902 5.928-35.602 14.45-50.761-1.857 14.128-1.849 28.537 0.023 42.578-0.372-15.575 4.445-31.332 13.147-43.44-3.82 6.221-4.593 14.739-5.075 22.52-0.906 14.711-1.811 29.422-2.725 44.132 2.472-14.227 9.754-27.378 19.942-35.995 5.142-4.346 11.027-7.636 15.662-12.633 0.019 0.265 0.052 0.532 0.105 0.799-2.519 4.549-5.036 9.095-7.554 13.646 3.904-2.381 8.075-4.16 12.363-5.298 0.693 1.056 1.393 2.108 2.099 3.155-8.727 5.103-16.56 12.732-21.598 22.122 7.801-7.138 16.941-12.258 26.538-15.027 0.603 0.834 1.213 1.661 1.825 2.486-6.113 3.226-11.798 7.752-16.843 12.936-7.461 7.677-13.703 16.739-19.683 26.007 4.802-6.499 10.956-11.665 17.787-14.85-4.052 6.463-7.762 13.199-11.104 20.173 6.645-13.4 18.537-23.279 31.608-26.135 2.109-0.467 4.246-0.763 6.311-1.474 1.097-0.381 2.152-0.883 3.177-1.466 0.138 0.644 0.27 1.288 0.403 1.933-2.887 1.942-6.073 3.418-9.228 4.609-4.069 1.533-8.329 2.822-11.761 5.808-2.604 2.259-4.56 5.357-6.473 8.404-4.095 6.521-8.408 14.195-6.833 21.925 1.919-7.646 5.098-15.158 10.363-20.359 5.073-5.009 12.054-7.917 15.428-14.462-2.346 4.827-5.14 9.371-8.316 13.525-2.37 3.087-4.974 6.005-6.696 9.609-1.729 3.605-2.446 8.144-0.82 11.733 0.673-6.441 3.314-12.627 7.343-17.22 5.724-6.528 14.273-10.188 18.076-18.169 0.037 0.191 0.073 0.383 0.11 0.574-3.716 12.933-16.385 21.049-20.034 34.228-3.137 11.31 1.155 23.319 0.883 35.125-0.216 9.689-3.518 19.073-3.973 28.754-0.565 11.936 3.751 24.366 12.273 30.887-2.354-8.701-4.153-17.622-5.376-26.653 4.725 13.304 14.975 23.716 27.015 27.454-4.362-6.392-7.58-13.834-9.381-21.748 5.112 8.199 11.498 15.338 18.75 20.995 1.538 1.212 3.128 2.358 4.746 3.424 2.536 1.675 5.911 2.374 8.801 1.649 2.897-0.724 5.564-2.346 8.31-3.652 8.394-3.975 17.522-4.914 26.557-5.512l-1.359 46.234c-0.292 0.327-2.614 2.338-2.941 2.609" fill="#f1f1f1"/>
    </g>
    <g transform="translate(4994.9 700.8)">
     <path d="m0 0c-8.451 6.118-17.876 10.884-27.81 14.063 4.706-4.241 9.121-8.814 13.196-13.664-4.392 2.604-8.783 5.201-13.168 7.805-1.618 0.957-3.252 1.928-5.06 2.436-1.692 0.477-3.469 0.536-5.222 0.589-4.051 0.129-8.102 0.258-12.152 0.388 8.436-1.763 16.36-5.931 22.577-11.899-5.984 1.766-11.224 5.564-17.238 7.222-8.055 2.21-16.607 0.39-24.762-1.441-4.672-1.045-9.425-2.126-13.566-4.532-4.897-2.849-8.622-7.38-13.45-10.339 7.268 1.823 14.726 2.91 22.214 3.234-12.121-0.51-23.984-5.779-32.479-14.434 5.983 0.639 12.035 0.642 18.023 0.014-7.274-0.333-14.601-0.662-21.679-2.371-7.078-1.71-13.975-4.905-18.985-10.191 5.887 0.496 10.8 1.145 16.241 2.893-16.216-5.649-30.512-16.681-40.073-30.95 7.015 3.379 14.664 5.427 22.425 6-11.284-5.908-21.485-13.881-29.941-23.411 8.057 3.223 16.114 6.444 24.179 9.675-12.086-4.841-23.062-12.432-31.849-22.039 7.356 3.853 15.233 6.704 23.347 8.456-14.64-5.685-27.252-16.423-35.206-29.961 5.51 5.001 11.857 9.081 18.688 12.027-9.903-7.531-16.754-18.928-18.87-31.172 1.467 7.645 5.793 14.732 11.987 19.459-5.879-7.166-5.157-17.483-4.389-26.72 1.184-14.313 1.402-29.884-6.893-41.612 12.388 4.007 22.498 14.028 27.44 26.071 4.941 12.05 4.89 25.9 0.697 38.228 7.034-13.192 4.11-29.174 4.803-44.109 0.715-15.353 5.548-30.495 13.863-43.422-1.71 12.105-1.566 24.47 0.425 36.536-0.517-13.369 4.116-26.844 12.638-37.15-3.733 5.3-4.419 12.603-4.825 19.275-0.76 12.615-1.52 25.231-2.287 37.845 2.319-12.186 9.422-23.402 19.453-30.7 5.627-4.091 12.183-7.048 16.903-12.166-2.912 4.602-5.823 9.197-8.735 13.799 6.208-3.233 13.118-5.127 20.114-5.516 0.033-2e-3 0.067-2e-3 0.101-4e-3 0.205 0.348 0.405 0.698 0.605 1.05-11.149 3.967-21.595 11.567-27.714 21.547 7.584-5.98 16.484-10.252 25.859-12.556-0.017 0.227-0.035 0.454-0.051 0.683-0.058 0.814 0.053 1.586 0.293 2.298-5.301 2.628-10.239 6.095-14.664 10.023-7.332 6.516-13.442 14.233-19.289 22.13 4.704-5.532 10.763-9.906 17.513-12.574-3.961 5.506-7.579 11.251-10.83 17.206 6.469-11.437 18.179-19.802 31.124-22.128 2.089-0.382 4.207-0.616 6.25-1.206 1.092-0.319 2.138-0.747 3.156-1.24 0.261 0.488 0.524 0.974 0.795 1.454-2.948 1.753-6.246 3.05-9.509 4.088-4.024 1.278-8.239 2.343-11.618 4.872-2.563 1.914-4.475 4.554-6.345 7.152-4.002 5.557-8.211 12.101-6.575 18.748 1.833-6.542 4.917-12.958 10.093-17.371 4.988-4.251 11.89-6.68 15.176-12.265-2.282 4.119-5.013 7.993-8.126 11.527-2.323 2.626-4.88 5.107-6.555 8.183-1.681 3.076-2.351 6.965-0.703 10.06 0.607-5.52 3.17-10.804 7.126-14.706 5.933-5.859 15.035-8.936 18.351-16.596-2.769 12.069-16.359 19.019-20.028 30.849-3.007 9.677 1.366 20.023 1.208 30.151-0.123 8.312-3.313 16.333-3.672 24.637-0.448 10.237 3.953 20.943 12.473 26.62-2.418-7.489-4.289-15.161-5.587-22.922 4.814 11.461 15.086 20.492 27.071 23.813-4.389-5.525-7.654-11.942-9.516-18.751 5.151 7.084 11.557 13.271 18.807 18.194 1.539 1.054 3.127 2.052 4.743 2.983 2.534 1.46 5.89 2.093 8.751 1.498 2.868-0.595 5.501-1.961 8.213-3.056 8.294-3.332 17.345-4.05 26.306-4.478l-2.875 41.127c-0.287 0.277-0.61 0.515-0.931 0.744" fill="#f1f1f1"/>
    </g>
    <g transform="translate(4979.8 703.72)">
     <path d="m0 0c8.45 6.117 17.876 10.883 27.81 14.063-4.706-4.241-9.122-8.814-13.196-13.664 4.392 2.604 8.783 5.201 13.167 7.805 1.618 0.956 3.253 1.927 5.061 2.435 1.691 0.477 3.468 0.537 5.221 0.59l12.153 0.387c-8.436-1.762-16.361-5.93-22.577-11.898 5.984 1.766 11.223 5.564 17.238 7.221 8.055 2.21 16.607 0.39 24.762-1.441 4.672-1.045 9.424-2.126 13.565-4.531 4.898-2.849 8.622-7.381 13.451-10.339-7.269 1.822-14.726 2.909-22.215 3.234 12.122-0.511 23.985-5.78 32.48-14.435-5.983 0.64-12.035 0.643-18.024 0.015 7.274-0.333 14.602-0.662 21.679-2.372 7.078-1.71 13.976-4.904 18.986-10.19-5.887 0.496-10.801 1.144-16.241 2.892 16.215-5.649 30.511-16.68 40.073-30.949-7.015 3.378-14.664 5.426-22.426 5.999 11.285-5.908 21.485-13.88 29.941-23.411-8.056 3.223-16.113 6.445-24.178 9.676 12.085-4.842 23.061-12.432 31.849-22.039-7.356 3.853-15.233 6.704-23.348 8.455 14.64-5.685 27.252-16.423 35.207-29.96-5.51 5-11.857 9.081-18.688 12.026 9.902-7.53 16.754-18.927 18.87-31.171-1.468 7.644-5.793 14.731-11.987 19.458 5.879-7.165 5.157-17.483 4.388-26.72-1.183-14.312-1.402-29.883 6.894-41.612-12.389 4.007-28.124 11.029-33.065 23.072-4.942 12.05-4.89 25.899-0.697 38.228-7.035-13.192 1.514-26.175 0.822-41.109-0.715-15.354-5.548-30.495-13.864-43.422 1.71 12.104 1.567 24.47-0.424 36.536 0.516-13.369-4.117-26.844-12.638-37.151 3.732 5.301 4.419 12.603 4.824 19.276 0.76 12.614 1.52 25.23 2.287 37.844-2.318-12.185-9.422-23.402-19.452-30.699-5.627-4.092-12.184-7.049-16.903-12.166 2.911 4.602 5.823 9.197 8.735 13.798-6.209-3.233-13.118-5.126-20.114-5.515-0.033-2e-3 -0.068-2e-3 -0.102-4e-3 -0.205 0.348-0.404 0.698-0.604 1.05 11.148 3.967 21.594 11.567 27.714 21.546-7.584-5.979-16.485-10.251-25.86-12.555 0.018 0.226 0.036 0.454 0.052 0.682 0.058 0.814-0.053 1.587-0.293 2.299 5.301 2.627 10.238 6.095 14.663 10.022 7.333 6.516 13.442 14.234 19.289 22.131-4.703-5.532-10.763-9.907-17.513-12.574 3.961 5.506 7.58 11.251 10.831 17.206-6.469-11.437-18.179-19.802-31.124-22.129-2.089-0.381-4.208-0.616-6.25-1.205-1.092-0.32-2.138-0.747-3.157-1.241-0.26 0.488-0.523 0.974-0.795 1.455 2.949 1.753 6.246 3.049 9.509 4.088 4.025 1.277 8.24 2.342 11.618 4.872 2.564 1.914 4.475 4.554 6.346 7.151 4.002 5.557 8.211 12.101 6.575 18.749-1.833-6.542-4.918-12.958-10.094-17.372-4.988-4.251-11.889-6.679-15.175-12.264 2.282 4.119 5.013 7.993 8.126 11.526 2.323 2.627 4.88 5.107 6.554 8.184 1.682 3.076 2.352 6.964 0.703 10.06-0.607-5.521-3.169-10.804-7.125-14.707-5.934-5.858-15.035-8.935-18.352-16.596 2.769 12.069 16.359 19.019 20.029 30.85 3.007 9.677-1.366 20.023-1.208 30.151 0.123 8.311 3.312 16.333 3.671 24.636 0.448 10.237-3.952 20.944-12.472 26.621 2.418-7.49 4.289-15.161 5.587-22.923-4.814 11.462-15.087 20.492-27.071 23.813 4.389-5.525 7.653-11.942 9.516-18.75-5.152 7.084-11.557 13.27-18.808 18.194-1.538 1.054-3.127 2.051-4.742 2.982-2.534 1.461-5.89 2.093-8.751 1.498-2.868-0.594-5.501-1.961-8.213-3.055-8.294-3.332-17.345-4.051-26.307-4.479l2.876 41.127c0.287 0.278 0.609 0.516 0.931 0.745" fill="#f1f1f1"/>
    </g>
    <g transform="translate(5095.6 499.6)">
     <path d="m7.0037 33.528c5.3669 14.314 5.4844 26.837 2.6888 25.608-4.41-1.9391-23.569-30.879-33.308-47.2-8.1693-13.692-24.49-41.309-27.234-44.98-34.349-35.902 8.1083-7.5877 25.679 4.167 35.085 21.527 12.713 7.3333 20.252 14.665 7.5541 2.3725 25.774 18.432 18.309 20.842" fill="#c59b6d"/>
    </g>
    <g transform="translate(4890.3 475.49)">
     <path d="m-20.081 9.1647c-8.4754 12.439 7.63 2.9388-0.86265 14.469-0.46968 2.3069 0.43986 19.133 2.7685 31.637 1.3699 7.356 4.4571 12.726 4.756 14.078 4.05-7.786 5.5834-19.693 36.322-59.066 31.171-33.416 12.283-13.482 31.171-33.416 26.592-19.21-12.846-3.6284-32.05 4.3578-25.943 10.298-31.168 14.698-35.009 18.35" fill="#c59b6d"/>
    </g>
    <g transform="translate(5095.9 614.54)">
     <path d="m0 0c-4.09-14.06-15.78-24.3-25.11-35.58-0.49-0.59-0.97-1.19-1.45-1.79-2.14 1.6-4.1 2.91-5.9 4.011-0.189 0.109-0.39 0.219-0.57 0.33-11.09 6.559-16.24 4.929-19.949 12.489 0.109-0.54 1.949-9.25 5.779-11.91-0.529 0.23-9.08 4.02-11.42 12.54 0 0 0.36-10.85 3.08-13.11-0.73 0.371-12.57 6.56-12.64 15.831 0 0-0.82-5.231 1.6-11.451 0 0-6 3.17-6.02 9.15 0 0-2.19-11.32-9.21-10.81-7.01 0.51-18.98 14.821-24.93 18.79-5.35-4.76-15.21-20.599-22.09-22.07-6.87-1.489-10.62 9.42-10.62 9.42 0.81-5.93-4.68-9.9-4.68-9.9 1.53 6.491-0.02 11.56-0.02 11.56 1.22-9.189-9.64-16.97-10.31-17.439 2.38 2.62 1.23 13.41 1.23 13.41-1.13-8.761-9.07-13.7-9.57-14 3.43 3.159 4.04 12.039 4.07 12.59-2.62-7.991-7.94-7.101-18.02-15.141-0.16-0.13-0.34-0.27-0.51-0.41-1.53-1.25-3.16-2.699-4.91-4.42-0.01 0.02-0.03 0.03-0.04 0.051-8.67 10.899-18.54 20.859-29.38 29.619-3.31 2.68-6.77 5.301-9.21 8.801-1.91 2.739-3.12 5.929-3.98 9.169-4.77 18.14 1.64 37.871 13.1 52.71 11.46 14.85-9.914 24.709 6.426 33.919 16.57 9.33 71.604 18.351 90.124 22.051 5.54 1.12 11.16 1.82 16.85 2.021 18.66 0.67 37.051-4.04 55.12-8.71 9.37-2.421 16.023 19.037 22.293 11.677 3.52-4.12 24.412-24.087 26.162-29.217 5.391-15.781-0.593-43.441 1.417-60 1.06-8.68-4.262-15.781-6.712-24.181" fill="#f1f1f1"/>
    </g>
    <g transform="translate(5004.9 636.37)">
     <path d="m0 0 16.885-9.217s12.407 15.242 16.847 25.748c4.441 10.505-35.252 32.993-35.252 32.993s-17.636-6.464-11.811-19.212c5.825-12.749 5.342-22.948 7.21-24.013s6.121-6.299 6.121-6.299" fill="#0e0606"/>
    </g>
    <g transform="translate(4968.9 633.85)">
     <path d="m0 0-15.438-11.478s-14.407 13.368-20.267 23.153c-5.859 9.785 30.317 37.579 30.317 37.579s18.365-3.948 14.371-17.383c-3.994-13.434-2.096-23.467-3.798-24.781-1.702-1.316-5.185-7.09-5.185-7.09" fill="#0e0606"/>
    </g>
    <g transform="translate(5034.3 647.25)">
     <path d="m0 0c-5.963-2.365-17.065 4.637-15.971 12.483 1.094 7.848-5.426 11.281-9.166 11.318-3.738 0.036-9.205-15.437-5.776-19.988 5.491-7.287 12.698-4.475 16.054-5.158 4-0.812 8.896-9.539 3.453-17.247-5.445-7.701-10.542-7.461-19.234-9.268-8.698-1.8-13.8-10.134-14.557-16.361-1.616 6.061-7.827 13.604-16.692 14.175-8.858 0.58-13.873-0.366-20.336 6.502-6.463 6.875-2.829 16.198 1.018 17.561 3.229 1.142 10.757-0.639 15.181 7.341 2.761 4.984-4.805 19.545-8.502 18.989-3.698-0.557-9.677-4.865-7.502-12.483 2.176-7.618-7.844-16.096-14.077-14.584-6.233 1.505-18.474 29.049-6.506 48.124 0.955 1.526 2.08 2.926 3.335 4.214 14.474 14.925 46.73 15.286 46.73 15.286s31.993 4.132 48.403-8.633c1.422-1.101 2.731-2.332 3.889-3.709 14.507-17.224 6.219-46.204 0.256-48.562" fill="#3b3833"/>
    </g>
    <g transform="translate(4892.2 654.59)">
     <path d="m0 0c-7.094-2.64-15.393-1.802-21.815 2.203-6.423 4.005-10.828 11.088-11.579 18.62-0.777 7.79 2.287 15.733 7.577 21.504 5.29 5.772 12.647 9.445 20.328 10.963 2.638 0.522 5.402 0.797 7.995 0.082 4.303-1.186 7.5-4.977 9.126-9.134 1.627-4.157 1.928-8.695 2.21-13.15 0.328-5.173 0.637-10.503-1.036-15.408-1.767-5.18-5.566-9.371-9.282-13.388-5.667-6.125-11.369-12.218-17.107-18.275" fill="#f1f1f1"/>
    </g>
    <g transform="translate(5239 710.61)">
     <path d="m0 0c8.182 10.727 20.655 20.553 37.574 25.943-5.5-4.437-10.999-8.876-16.499-13.314-1.195-0.964-2.441-2.008-2.573-3.226s1.42-2.58 3.352-2.412c6.622 4.194 13.244 8.386 19.866 12.579-5.109-8.398-10.217-16.796-15.326-25.194 7.139 4.799 14.278 9.597 21.417 14.395-19.656-22.934-26.241-49.97-50.009-71.323 5.228 6.791 8.468 14.181 9.51 21.692-5.65-5.91-12.074-11.528-19.187-16.781 7.59 12.512 17.695 27.704 13.285 41.338-3.649-2.718-7.794-9.732-14.608-9.28 0.849 8.358 7.453 18.052 13.198 25.583" fill="#c59b6d"/>
    </g>
    <g transform="translate(4696.5 704.33)">
     <path d="m0 0c-9.143 9.92-16.654 23.91-19.025 41.509 3.416-6.188 6.831-12.374 10.247-18.561 0.742-1.345 1.554-2.753 2.731-3.095 1.176-0.34 2.786 0.952 2.957 2.882-2.98 7.25-5.959 14.499-8.938 21.749l22.15-19.467c-3.486 7.863-6.972 15.727-10.458 23.59 19.173-23.339 44.655-34.518 61.556-61.634-5.781 6.329-30.726 13.56-44.92 11.586 2.043-4.067 8.231-9.367 6.602-15.999-8.084 2.289-16.483 10.475-22.902 17.44" fill="#c59b6d"/>
    </g>
   </g>
  </g>
 </g>
</svg>
