<svg width="16" height="16" viewBox="0 0 16 16" fill="none" xmlns="http://www.w3.org/2000/svg">
<mask id="mask0_2_2" style="mask-type:alpha" maskUnits="userSpaceOnUse" x="0" y="0" width="16" height="16">
<path d="M0 0H16V16H0V0Z" fill="white"/>
</mask>
<g mask="url(#mask0_2_2)">
<path fill-rule="evenodd" clip-rule="evenodd" d="M2.95914 9.58221C1.13316 7.75622 1.13316 4.78514 2.95914 2.95916C3.87212 2.04616 5.07138 1.58962 6.27064 1.58962C7.4699 1.58962 8.66926 2.04616 9.58224 2.95916C11.4082 4.78514 11.4082 7.75622 9.58224 9.58221C8.6977 10.4668 7.52164 10.9539 6.27064 10.9539C5.01974 10.9539 3.84368 10.4668 2.95914 9.58221ZM16 14.8357L11.2496 10.0852C13.1351 7.6273 12.9555 4.0832 10.7068 1.83454C8.26071 -0.611515 4.28058 -0.611515 1.83453 1.83454C-0.611511 4.2807 -0.611511 8.26076 1.83453 10.7068C3.01948 11.8918 4.59492 12.5443 6.27064 12.5443C7.6687 12.5443 8.99595 12.0887 10.0858 11.2502L14.8356 16L16 14.8357Z" fill="#F48700"/>
</g>
</svg>
